<svg height="512pt" viewBox="0 -19 512 511" width="512pt" xmlns="http://www.w3.org/2000/svg"><path d="m282.738281 20.503906c2.632813 0 5.210938-1.070312 7.070313-2.929687 1.871094-1.871094 2.929687-4.441407 2.929687-7.070313 0-2.640625-1.058593-5.210937-2.929687-7.070312-1.859375-1.871094-4.4375-2.929688-7.070313-2.929688-2.628906 0-5.207031 1.058594-7.066406 2.929688-1.863281 1.859375-2.933594 4.429687-2.933594 7.070312 0 2.628906 1.070313 5.199219 2.933594 7.070313 1.859375 1.859375 4.4375 2.929687 7.066406 2.929687zm0 0"/><path d="m462 .5h-139c-5.523438 0-10 4.476562-10 10s4.476562 10 10 10h139c16.542969 0 30 13.457031 30 30v217.859375c-3.152344-1.125-6.542969-1.742187-10.078125-1.742187-4.5625 0-8.890625 1.019531-12.769531 2.847656-2.410156-5.285156-6.308594-9.746094-11.152344-12.867188v-202.097656c0-5.523438-4.476562-10-10-10h-330c-5.523438 0-10 4.476562-10 10v253.964844c-9.820312-7.121094-21.421875-11.921875-34-13.605469v-244.359375c0-16.542969 13.457031-30 30-30h139c5.523438 0 10-4.476562 10-10s-4.476562-10-10-10h-139c-27.570312 0-50 22.429688-50 50v165.953125c-7.355469-6.214844-16.367188-10.609375-26.410156-12.425781-6.847656-1.238282-13.84375.613281-19.183594 5.078125-5.34375 4.464843-8.40625 11.015625-8.40625 17.980469v102.820312c0 37.125 9.328125 73.902344 27 106.535156v26.058594c0 5.523438 4.476562 10 10 10s10-4.476562 10-10v-28.621094c0-1.703125-.433594-3.378906-1.265625-4.867187-16.835937-30.234375-25.734375-64.503907-25.734375-99.109375v-102.816406c0-1.394532.769531-2.246094 1.230469-2.632813.457031-.382813 1.4375-.988281 2.804687-.742187 17.363282 3.136718 29.964844 18.214843 29.964844 35.855468v44.609375c0 5.523438 4.476562 10 10 10 30.394531 0 55.125 24.726563 55.125 55.125v18.199219c0 5.523438 4.476562 10 10 10s10-4.476562 10-10v-9h70.269531c-9.433593 33.160156-33.210937 60.78125-64.957031 74.890625-5.046875 2.242187-7.320312 8.152344-5.078125 13.199219 1.660156 3.726562 5.316406 5.941406 9.144531 5.941406 1.359375 0 2.738282-.277344 4.058594-.863281 38.90625-17.292969 67.609375-51.914063 77.511719-93.167969h52.28125l1.800781 7.476562c3.625 15.023438 10.085938 28.964844 19.207031 41.445313l29.945313 40.976563c3.257812 4.460937 9.515625 5.433593 13.972656 2.175781 4.460938-3.257813 5.433594-9.515625 2.175781-13.972657l-29.945312-40.980468c-7.554688-10.335938-12.90625-21.890625-15.910157-34.335938l-15.285156-63.363281c-1.222656-5.066406 1.171875-10.246094 5.828125-12.59375 5.4375-2.742187 11.964844-.691406 14.859375 4.667969l23.578125 43.660156c2.175781 4.03125 6.8125 6.066406 11.25 4.945312 4.441407-1.125 7.550781-5.117187 7.550781-9.695312v-145.386719c0-5.554687 4.519532-10.078125 10.078126-10.078125 5.554687 0 10.074218 4.523438 10.074218 10.078125v131.980469c0 5.523438 4.480469 10 10 10 5.523438 0 10-4.476562 10-10v-66.316406c0-5.558594 4.523438-10.078125 10.078125-10.078125 5.558594 0 10.078125 4.519531 10.078125 10.078125v66.316406c0 5.523438 4.476563 10 10 10 5.523438 0 10-4.476562 10-10v-53.601562c0-5.554688 4.519532-10.078126 10.078125-10.078126 5.554688 0 10.078125 4.523438 10.078125 10.078126v53.601562c0 5.523438 4.476563 10 10 10 5.519532 0 10-4.476562 10-10v-38.804688c0-5.558593 4.519532-10.078124 10.078125-10.078124 5.554688 0 10.074219 4.519531 10.074219 10.078124v70.453126c0 18.609374-2.824219 37.042968-8.390625 54.800781l-11.777344 37.558593c-1.652343 5.269532 1.277344 10.882813 6.550781 12.535157.996094.3125 2 .460937 2.992188.460937 4.253906 0 8.199219-2.738281 9.539062-7.011718l11.777344-37.558594c6.175782-19.695313 9.308594-40.144532 9.308594-60.785156v-316.648438c0-27.570312-22.429688-50-50-50zm-239.949219 358c-.035156 0-.070312 0-.101562 0h-83.609375c-1.238282-8.550781-3.921875-16.628906-7.792969-24h141.191406l5.789063 24zm206.121094-103.425781c-5.0625-9.496094-15.070313-15.96875-26.558594-15.96875-3.535156 0-6.925781.613281-10.078125 1.734375v-37.320313c0-16.582031-13.492187-30.078125-30.078125-30.078125-16.582031 0-30.074219 13.496094-30.074219 30.078125v105.824219l-4.78125-8.851562c-8.078124-14.957032-26.292968-20.675782-41.46875-13.019532-10.492187 5.292969-16.871093 15.746094-17.132812 27.027344h-140v-250h310v187.558594c-3.496094.441406-6.808594 1.476562-9.828125 3.015625zm0 0"/><path d="m318.875 147.46875-77.378906-59.878906c-3.601563-2.785156-8.636719-2.785156-12.238282 0l-77.375 59.878906c-3.382812 2.617188-4.726562 7.097656-3.34375 11.144531 1.382813 4.046875 5.1875 6.765625 9.460938 6.765625h8.679688v78.121094c0 5.523438 4.476562 10 10 10h118c5.523437 0 10-4.476562 10-10v-78.121094h8.074218c4.277344 0 8.082032-2.71875 9.464844-6.765625 1.378906-4.046875.035156-8.527343-3.34375-11.144531zm-93.5 86.03125v-48h20v48zm59.304688-78.121094v78.121094h-19.300782v-58c0-5.523438-4.480468-10-10-10h-40c-5.523437 0-10 4.476562-10 10v58h-18.699218v-78.121094c0-2.824218-1.171876-5.371094-3.050782-7.1875l51.75-40.046875 52.085938 40.308594c-1.726563 1.796875-2.785156 4.234375-2.785156 6.925781zm0 0"/><path d="m480.738281 196.574219c1.863281-1.859375 2.933594-4.441407 2.933594-7.070313 0-2.640625-1.070313-5.21875-2.933594-7.070312-1.859375-1.871094-4.4375-2.929688-7.066406-2.929688-2.640625 0-5.210937 1.058594-7.070313 2.929688-1.871093 1.859375-2.929687 4.429687-2.929687 7.070312 0 2.628906 1.058594 5.210938 2.929687 7.070313 1.859376 1.859375 4.429688 2.929687 7.070313 2.929687 2.628906 0 5.207031-1.070312 7.066406-2.929687zm0 0"/></svg>