<?xml version="1.0" encoding="iso-8859-1"?>
<!-- Generator: Adobe Illustrator 19.0.0, SVG Export Plug-In . SVG Version: 6.00 Build 0)  -->
<svg version="1.1" id="Capa_1" xmlns="http://www.w3.org/2000/svg" xmlns:xlink="http://www.w3.org/1999/xlink" x="0px" y="0px"
	 viewBox="0 0 464 464" style="enable-background:new 0 0 464 464;" xml:space="preserve">
<path style="fill:#787680;" d="M0,56h16h432h16V24H0V56z"/>
<path style="fill:#D1E7F8;" d="M16,56v352h432V56H16z M192,96c44.183,0,80,35.817,80,80s-35.817,80-80,80s-80-35.817-80-80
	S147.817,96,192,96z"/>
<path style="fill:#FF7956;" d="M368,184h-48v16h28.688l-88,88H111.576c-2.122,0-4.156,0.844-5.656,2.344L58.344,337.92
	l11.312,11.312L114.888,304H264c2.122,0,4.156-0.844,5.656-2.344L360,211.312V240h16v-48C376,187.582,372.418,184,368,184L368,184z"
	/>
<path style="fill:#5AAAE7;" d="M408,376H64c-4.418,0-8-3.582-8-8V144h16v216h336V376z"/>
<path style="fill:#787680;" d="M0,408v32h464v-32h-16H16H0z"/>
<circle style="fill:#FFD422;" cx="192" cy="176" r="80"/>
<g>
	<path style="fill:#FFA733;" d="M160,216v16h16v-16h8v16h16v-16h8c13.197,0.058,23.943-10.593,24.002-23.79
		c0.027-5.995-2.201-11.781-6.242-16.21c8.894-9.75,8.2-24.864-1.55-33.758c-4.429-4.04-10.215-6.268-16.21-6.242h-8v-16h-16v16h-8
		v-16h-16v16c-4.418,0-8,3.582-8,8v64C152,212.418,155.582,216,160,216z M208,200h-40v-16h40c4.418,0,8,3.582,8,8
		S212.418,200,208,200z M216,160c0,4.418-3.582,8-8,8h-40v-16h40C212.418,152,216,155.582,216,160z"/>
	<path style="fill:#FFA733;" d="M192,264c48.601,0,88-39.399,88-88s-39.399-88-88-88s-88,39.399-88,88
		C104.057,224.577,143.423,263.943,192,264z M192,104c39.764,0,72,32.236,72,72s-32.236,72-72,72s-72-32.236-72-72
		C120.044,136.254,152.254,104.044,192,104z"/>
</g>
<g>
	<path style="fill:#3D9AE2;" d="M320,96h16v16h-16V96z"/>
	<path style="fill:#3D9AE2;" d="M352,96h48v16h-48V96z"/>
	<path style="fill:#3D9AE2;" d="M320,128h80v16h-80V128z"/>
</g>
<g>
</g>
<g>
</g>
<g>
</g>
<g>
</g>
<g>
</g>
<g>
</g>
<g>
</g>
<g>
</g>
<g>
</g>
<g>
</g>
<g>
</g>
<g>
</g>
<g>
</g>
<g>
</g>
<g>
</g>
</svg>
