<svg height="512" viewBox="0 0 64 64" width="512" xmlns="http://www.w3.org/2000/svg"><g id="Content_management" data-name="Content management"><path d="m47 53h-44v-40l10-10h34z" fill="#ffcd00"/><path d="m17 7v10h-10v40h44v-50z" fill="#ffeb99"/><path d="m13 57h38v-42c0 19.882-18.118 42-38 42z" fill="#ffde55"/><path d="m13 11v-8l-10 10h8z" fill="#ff5023"/><path d="m11 13-4 4h10v-10l-4 4z" fill="#ff6243"/><path d="m23 13h22v5h-22z" fill="#ff9811"/><path d="m13 24h12v12h-12z" fill="#006df0"/><path d="m61 52h-4.76l.13.12v.01l3.24 3.23-4.25 4.25-3.23-3.24h-.01l-.12-.13v4.76h-6v-4.76l-.12.13h-.01l-3.23 3.24-4.25-4.25 3.24-3.23v-.01l.13-.12h-4.76v-6h4.76l-.13-.12v-.01l-3.24-3.23 4.25-4.25 3.23 3.24h.01l.12.13v-4.76h6v4.76l.12-.13h.01l3.23-3.24 4.25 4.25-3.24 3.23v.01l-.13.12h4.76z" fill="#ed1c24"/><circle cx="49" cy="49" fill="#e6e7e8" r="4"/><path d="m23 19h22a1 1 0 0 0 1-1v-5a1 1 0 0 0 -1-1h-22a1 1 0 0 0 -1 1v5a1 1 0 0 0 1 1zm1-5h20v3h-20z"/><path d="m13 37h12a1 1 0 0 0 1-1v-12a1 1 0 0 0 -1-1h-12a1 1 0 0 0 -1 1v12a1 1 0 0 0 1 1zm1-12h10v10h-10z"/><path d="m45 23h-14a1 1 0 0 0 0 2h14a1 1 0 0 0 0-2z"/><path d="m45 27h-14a1 1 0 0 0 0 2h14a1 1 0 0 0 0-2z"/><path d="m45 31h-14a1 1 0 0 0 0 2h14a1 1 0 0 0 0-2z"/><path d="m39 35h-8a1 1 0 0 0 0 2h8a1 1 0 0 0 0-2z"/><path d="m33 41h-20a1 1 0 0 0 0 2h20a1 1 0 0 0 0-2z"/><path d="m33 45h-20a1 1 0 0 0 0 2h20a1 1 0 0 0 0-2z"/><path d="m33 49h-20a1 1 0 0 0 0 2h20a1 1 0 0 0 0-2z"/><path d="m61 45h-2.341l1.657-1.652a1 1 0 0 0 0-1.415l-4.25-4.25a1 1 0 0 0 -.707-.293 1 1 0 0 0 -.707.294l-1.652 1.657v-2.341a1 1 0 0 0 -1-1v-29a1 1 0 0 0 -1-1h-3v-3a1 1 0 0 0 -1-1h-34a1 1 0 0 0 -.707.293l-10 10a1 1 0 0 0 -.293.707v40a1 1 0 0 0 1 1h3v3a1 1 0 0 0 1 1h32.616l2.317 2.317a1 1 0 0 0 .707.293 1 1 0 0 0 .707-.294l1.653-1.657v2.341a1 1 0 0 0 1 1h6a1 1 0 0 0 1-1v-2.341l1.652 1.657a1 1 0 0 0 .707.294 1 1 0 0 0 .707-.293l4.25-4.25a1 1 0 0 0 0-1.415l-1.657-1.652h2.341a1 1 0 0 0 1-1v-6a1 1 0 0 0 -1-1zm-47-41h32v2h-29a1 1 0 0 0 -.707.293l-2.293 2.293zm2 5.414v6.586h-6.586zm-4-4v5.172l-1.414 1.414h-5.172zm-5.707 10.879a1 1 0 0 0 -.293.707v35h-2v-38h4.586zm1.707 1.707h9a1 1 0 0 0 1-1v-9h32v28h-4a1 1 0 0 0 -1 1v2.341l-1.652-1.657a1 1 0 0 0 -.707-.294 1 1 0 0 0 -.707.293l-4.25 4.25a1 1 0 0 0 0 1.415l1.657 1.652h-2.341a1 1 0 0 0 -1 1v6a1 1 0 0 0 1 1h2.341l-1.657 1.652a.976.976 0 0 0 -.046 1.348h-29.638zm52 33h-3.76a1 1 0 0 0 -.679 1.734l.047.044c.018.02.037.041.056.06l2.536 2.523-2.839 2.839-2.523-2.531c-.019-.019-.039-.037-.059-.055l-.045-.048a1 1 0 0 0 -1.734.674v3.76h-4v-3.76a1 1 0 0 0 -1.734-.679l-.044.047c-.02.018-.041.037-.06.056l-2.523 2.536-2.834-2.834 2.531-2.523c.019-.019.037-.039.055-.059l.048-.045a1 1 0 0 0 -.679-1.739h-3.76v-4h3.76a1 1 0 0 0 .679-1.734l-.047-.044c-.018-.02-.037-.041-.056-.06l-2.531-2.523 2.834-2.834 2.523 2.531c.019.019.039.037.059.055l.045.048a1 1 0 0 0 1.734-.679v-3.76h4v3.76a1 1 0 0 0 1.734.679l.044-.047c.02-.018.041-.037.06-.056l2.523-2.531 2.839 2.834-2.531 2.523c-.019.019-.037.039-.055.059l-.048.045a1 1 0 0 0 .674 1.734h3.76z"/><path d="m49 44a5 5 0 1 0 5 5 5.006 5.006 0 0 0 -5-5zm0 8a3 3 0 1 1 3-3 3 3 0 0 1 -3 3z"/></g></svg>