<svg height="512" viewBox="0 0 64 64" width="512" xmlns="http://www.w3.org/2000/svg"><g id="Reposive_design" data-name="Reposive design"><path d="m45 55h16v-14c0 7.738-7.156 14-16 14z" fill="#ebbf00"/><path d="m49 9v20a2.006 2.006 0 0 1 -2 2h-30a2.006 2.006 0 0 1 -2-2v-20z" fill="#ffcd00"/><path d="m18 31h29a2.006 2.006 0 0 0 2-2v-20c0 12.16-13.865 22-31 22z" fill="#ddb200"/><path d="m5 61h28a2 2 0 0 0 2-2v-2h-32v2a2 2 0 0 0 2 2z" fill="#005ece"/><rect fill="#57a4ff" height="22" rx="2" width="28" x="5" y="35"/><path d="m8 38h22v16h-22z" fill="#ffcd00"/><path d="m45 55v4a2 2 0 0 0 2 2h12a2 2 0 0 0 2-2v-4z" fill="#005ece"/><path d="m45 41h16v14h-16z" fill="#ffcd00"/><path d="m57 52v-4-4h-8v4 4z" fill="none"/><path d="m59 35h-12a2 2 0 0 0 -2 2v4h16v-4a2 2 0 0 0 -2-2z" fill="#005ece"/><path d="m47 3h-30a2 2 0 0 0 -2 2v4h34v-4a2 2 0 0 0 -2-2z" fill="#005ece"/><path d="m19 12h26v4h-26z" fill="#ed1c24"/><path d="m19 19h7v9h-7z" fill="#ff9811"/><path d="m30 19h15v9h-15z" fill="#5eac24"/><path d="m12 41h4v10h-4z" fill="#ed1c24"/><path d="m20 41h6v5h-6z" fill="#ff9811"/><path d="m49 44h8v4h-8z" fill="#ff9811"/><path d="m8 54h22v-16c0 8.844-9.84 16-22 16z" fill="#ddb200"/><path d="m20 46h6v5h-6z" fill="#5eac24"/><path d="m46 55h15v-13c0 7.186-6.709 13-15 13z" fill="#ddb200"/><path d="m54 57h-2a1 1 0 0 0 0 2h2a1 1 0 0 0 0-2z" fill="#f1f2f2"/><path d="m52 39h2a1 1 0 0 0 0-2h-2a1 1 0 0 0 0 2z" fill="#f1f2f2"/><path d="m18 5h2v2h-2z" fill="#d80027"/><path d="m22 5h2v2h-2z" fill="#ff9811"/><path d="m26 5h2v2h-2z" fill="#5eac24"/><g fill="#808285"><path d="m56 18h2v2h-2z"/><path d="m56 22h2v2h-2z"/><path d="m56 26h2v2h-2z"/><path d="m56 30h2v2h-2z"/><path d="m52 18h2v2h-2z"/><path d="m36 45h2v2h-2z"/><path d="m40 45h2v2h-2z"/><path d="m6 18h2v2h-2z"/><path d="m6 22h2v2h-2z"/><path d="m6 26h2v2h-2z"/><path d="m6 30h2v2h-2z"/><path d="m10 18h2v2h-2z"/></g><path d="m49 48h8v4h-8z" fill="#5eac24"/></g></svg>