<?xml version="1.0" encoding="iso-8859-1"?>
<!-- Generator: Adobe Illustrator 21.0.0, SVG Export Plug-In . SVG Version: 6.00 Build 0)  -->
<svg xmlns="http://www.w3.org/2000/svg" xmlns:xlink="http://www.w3.org/1999/xlink" version="1.1" id="Capa_1" x="0px" y="0px" viewBox="0 0 511.969 511.969" style="enable-background:new 0 0 511.969 511.969;" xml:space="preserve" width="512" height="512">
<g>
	<g>
		<path style="fill:#525468;" d="M441.807,67.223H70.057c-18.06,0-32.753,14.693-32.753,32.753c0,6.993,0,255.038,0,262.155    c0,18.06,14.693,32.753,32.753,32.753c34.569,0,358.456,0,371.75,0c18.06,0,32.753-14.693,32.753-32.753    c0-6.993,0-255.038,0-262.155C474.56,81.916,459.867,67.223,441.807,67.223z"/>
		<path style="fill:#3E4151;" d="M57.304,362.13c0-7.117,0-255.161,0-262.155c0-18.06,14.693-32.753,32.753-32.753h-20    c-18.06,0-32.753,14.693-32.753,32.753c0,6.993,0,255.038,0,262.155c0,18.06,14.693,32.753,32.753,32.753c3.659,0,10.57,0,20,0    C71.997,394.883,57.304,380.19,57.304,362.13z"/>
		<path style="fill:#FFC964;" d="M441.807,97.451H70.057c-1.345,0-2.525,1.18-2.525,2.525c0,6.612,0,254.907,0,262.155    c0,1.345,1.18,2.525,2.525,2.525c6.644,0,365.4,0,371.75,0c1.345,0,2.525-1.18,2.525-2.525c0-7.541,0-258.593,0-262.155    C444.332,98.63,443.152,97.451,441.807,97.451z"/>
		<path style="fill:#F3A334;" d="M87.532,362.13c0-7.247,0-255.543,0-262.155c0-1.345,1.18-2.525,2.525-2.525h-20    c-1.345,0-2.525,1.18-2.525,2.525c0,6.612,0,254.907,0,262.155c0,1.345,1.18,2.525,2.525,2.525c0.892,0,8.13,0,20,0    C88.712,364.655,87.532,363.475,87.532,362.13z"/>
		<path style="fill:#E4E3E1;" d="M486.446,394.883c-6.479,0-454.815,0-461.027,0c-9.884,0-17.971,8.087-17.971,17.971v14.606    c0,9.884,8.087,17.971,17.971,17.971h461.027c9.884,0,17.971-8.087,17.971-17.971v-14.606    C504.416,402.97,496.329,394.883,486.446,394.883z"/>
		<path style="fill:#D1D0CF;" d="M486.445,425.111H25.418c-8.91,0-16.338-6.578-17.72-15.114c-0.151,0.933-0.251,1.883-0.251,2.857    v14.606c0,9.884,8.087,17.971,17.971,17.971h461.027c9.884,0,17.971-8.087,17.971-17.971v-14.606c0-0.974-0.1-1.924-0.251-2.857    C502.784,418.532,495.355,425.111,486.445,425.111z"/>
		<path style="fill:#4B98D4;" d="M441.807,95.451H70.057c-1.345,0-2.525,1.18-2.525,2.525c0,1.285,0,11.703,0,27.703h376.8    c0-16.462,0-26.994,0-27.703C444.332,96.63,443.152,95.451,441.807,95.451z"/>
		<path style="fill:#ED5454;" d="M97.76,95.451H70.057c-1.345,0-2.525,1.18-2.525,2.525c0,1.285,0,11.703,0,27.703H97.76V95.451z"/>
		<path style="fill:#EA3F3F;" d="M90.057,95.451h-20c-1.345,0-2.525,1.18-2.525,2.525c0,1.285,0,11.703,0,27.703h20    c0-16,0-26.418,0-27.703C87.532,96.63,88.712,95.451,90.057,95.451z"/>
		<path style="fill:#C1C1C1;" d="M183.721,394.883v15.786c0,7.976,6.466,14.442,14.442,14.442h115.537    c7.976,0,14.442-6.466,14.442-14.442v-15.786H183.721z"/>
		<path style="fill:#AFAFAF;" d="M203.721,410.669v-15.786h-20v15.786c0,7.976,6.466,14.442,14.442,14.442h20    C210.187,425.111,203.721,418.645,203.721,410.669z"/>
		
			<ellipse transform="matrix(0.7071 -0.7071 0.7071 0.7071 -99.3118 252.4258)" style="fill:#525468;" cx="255.049" cy="246.093" rx="95.802" ry="95.802"/>
		<path style="fill:#3E4151;" d="M207.307,313.835c-37.413-37.413-37.413-98.071,0-135.484    c16.159-16.159,36.656-25.323,57.742-27.523c-27.734-2.894-56.488,6.27-77.742,27.523c-37.413,37.413-37.413,98.071,0,135.484    c21.254,21.254,50.008,30.417,77.742,27.523C243.963,339.158,223.466,329.994,207.307,313.835z"/>
		<path style="fill:#ED5454;" d="M346.963,326.343l-11.664,11.664c-5.534,5.534-5.535,14.507,0,20.041l54.798,54.798    c5.534,5.534,14.507,5.534,20.041,0l11.664-11.664c5.534-5.534,5.535-14.507,0-20.041l-54.798-54.798    C361.469,320.808,352.497,320.809,346.963,326.343z"/>
		<path style="fill:#EA3F3F;" d="M409.8,412.846l-54.798-54.798c-5.535-5.534-5.534-14.507,0-20.042l11.664-11.663    c0.054-0.054,0.114-0.1,0.169-0.153c-5.546-5.372-14.392-5.326-19.872,0.153l-11.664,11.663c-5.534,5.534-5.535,14.507,0,20.042    l54.798,54.798c5.48,5.48,14.325,5.525,19.871,0.153C409.914,412.946,409.854,412.901,409.8,412.846z"/>
		
			<ellipse transform="matrix(0.7071 -0.7071 0.7071 0.7071 -99.312 252.4258)" style="fill:#72BDF6;" cx="255.049" cy="246.093" rx="67.207" ry="67.207"/>
		<path style="fill:#4B98D4;" d="M227.526,293.616c-26.246-26.246-26.246-68.799,0-95.045    c10.572-10.572,23.791-16.878,37.523-18.933c-20.359-3.047-41.848,3.259-57.523,18.933c-26.246,26.246-26.246,68.799,0,95.045    c15.674,15.674,37.163,21.979,57.523,18.932C251.317,310.493,238.098,304.187,227.526,293.616z"/>
		<path style="fill:#EA3F3F;" d="M347.041,369.789l43.057,43.057c5.534,5.534,14.507,5.534,20.041-0.001l11.664-11.664    c5.534-5.534,5.535-14.507,0.001-20.041l-43.057-43.057L347.041,369.789z"/>
		<path style="fill:#D4352F;" d="M409.969,412.999c-0.055-0.053-0.115-0.098-0.169-0.153l-52.908-52.908l-9.851,9.851    c5.185,5.185,38.071,38.071,43.057,43.057C395.539,418.288,404.39,418.402,409.969,412.999z"/>
	</g>
	<g>
		<path d="M307.928,192.926c-29.129-29.129-76.524-29.128-105.653,0c-29.127,29.128-29.127,76.523,0.001,105.651    c29.126,29.127,76.523,29.129,105.652,0C337.055,269.449,337.055,222.054,307.928,192.926z M297.321,287.97    c-23.28,23.277-61.159,23.28-84.439,0c-37.494-37.495-10.829-101.898,42.22-101.898    C308.127,186.072,334.83,250.459,297.321,287.97z"/>
		<path d="M486.498,387.041h-13.324c5.584-6.911,8.938-15.696,8.938-25.252V255.985c0-4.142-3.357-7.5-7.5-7.5s-7.5,3.358-7.5,7.5    v105.804c0,13.924-11.328,25.252-25.253,25.252h-8.702c-1.339-7.632-5.757-11.303-9.682-15.228h18.384    c5.527,0,10.024-4.497,10.024-10.025c0-11.089,0-251.031,0-262.155c0-5.528-4.497-10.025-10.024-10.025    c-14.185,0-360.463,0-371.75,0c-5.528,0-10.025,4.497-10.025,10.025c0,11.128,0,251.055,0,262.155    c0,5.528,4.497,10.025,10.025,10.025h268.743c0.738,0.738,0.567,0.567,15.227,15.228H70.109    c-13.925,0-25.253-11.328-25.253-25.252V99.634c0-13.924,11.328-25.253,25.253-25.253h167.492c4.143,0,7.5-3.358,7.5-7.5    s-3.357-7.5-7.5-7.5H70.109c-22.195,0-40.253,18.057-40.253,40.253v262.155c0,9.557,3.354,18.341,8.938,25.252H25.471    C11.426,387.041,0,398.467,0,412.511v14.606c0,14.044,11.426,25.471,25.471,25.471h461.027c14.045,0,25.471-11.426,25.471-25.471    v-14.606C511.969,398.467,500.543,387.041,486.498,387.041z M340.157,343.529c0.015-0.019,0.028-0.039,0.043-0.058    c0.336-0.412,11.737-11.786,12.118-12.167c2.591-2.589,6.84-2.595,9.435,0l6.438,6.438l-21.099,21.098l-6.438-6.438    C338.233,349.977,338.068,346.147,340.157,343.529z M418.26,392.576L418.26,392.576c-0.313,1.153-0.94,2.192-1.708,2.961    L404.887,407.2c-2.547,2.547-6.762,2.657-9.434,0c-10.342-10.342-14.138-14.139-37.753-37.754l21.098-21.098l37.753,37.753    C418.18,387.73,418.902,390.206,418.26,392.576z M436.884,119.836H105.313v-15.228h331.571V119.836z M75.084,104.609h15.229    v15.228H75.084V104.609z M75.084,356.813V134.836c12.657,0,346.117,0,361.8,0v221.977h-28.408l-36.116-36.116    c-7.988-7.988-21.562-9.086-31.177,0.529l-7.923-7.923c16.265-18.762,25.143-42.475,25.143-67.552    c0-57.095-46.201-103.301-103.301-103.301c-57.096,0-103.302,46.202-103.302,103.301c0,88.933,104.711,135.5,170.853,78.159    l7.923,7.923c-7.211,7.208-8.686,16.766-4.872,24.98H75.084z M166.8,245.751c0-48.806,39.494-88.301,88.302-88.301    c48.804,0,88.301,39.493,88.301,88.301c0,23.586-9.185,45.761-25.863,62.439C262.408,363.321,166.8,324.72,166.8,245.751z     M320.694,402.041v8.286c0,3.828-3.114,6.942-6.941,6.942H198.216c-3.828,0-6.942-3.114-6.942-6.942v-8.286H320.694z     M496.969,427.117c0,5.773-4.697,10.471-10.471,10.471H25.471c-5.773,0-10.471-4.697-10.471-10.471v-14.606    c0-5.773,4.697-10.471,10.471-10.471c4.345,0,139.656,0,150.803,0v8.286c0,12.099,9.844,21.942,21.942,21.942h115.537    c12.099,0,21.941-9.843,21.941-21.942v-8.286h33.385c13.075,13.075,9.237,9.237,15.767,15.767c8.486,8.486,22.204,8.443,30.647,0    l11.665-11.664c0.008-0.008,0.015-0.017,0.022-0.025c1.058-1.062,2.256-2.532,3.188-4.078c6.687,0,49.342,0,56.13,0    c5.773,0,10.471,4.697,10.471,10.471V427.117z"/>
		<path d="M272.602,74.381h169.258c13.925,0,25.253,11.329,25.253,25.253v121.351c0,4.142,3.357,7.5,7.5,7.5s7.5-3.358,7.5-7.5    V99.634c0-22.195-18.058-40.253-40.253-40.253H272.602c-4.143,0-7.5,3.358-7.5,7.5S268.459,74.381,272.602,74.381z"/>
	</g>
</g>















</svg>
