<svg height="464pt" viewBox="0 0 464 464" width="464pt" xmlns="http://www.w3.org/2000/svg"><path d="m232 464h216c8.824219-.027344 15.972656-7.175781 16-16v-320h-232zm0 0" fill="#f1f2f2"/><path d="m0 128v320c.0273438 8.824219 7.175781 15.972656 16 16h216v-336zm0 0" fill="#e6e7e8"/><path d="m232 0h-216c-8.824219.0273438-15.9726562 7.175781-16 16v112h232zm0 0" fill="#46f8ff"/><path d="m448 0h-216v128h232v-112c-.027344-8.824219-7.175781-15.9726562-16-16zm0 0" fill="#affcff"/><path d="m88 64c0 13.253906-10.746094 24-24 24s-24-10.746094-24-24 10.746094-24 24-24 24 10.746094 24 24zm0 0" fill="#ff9811"/><path d="m168 64c0 13.253906-10.746094 24-24 24s-24-10.746094-24-24 10.746094-24 24-24 24 10.746094 24 24zm0 0" fill="#ffcd00"/><path d="m248 64c0 13.253906-10.746094 24-24 24s-24-10.746094-24-24 10.746094-24 24-24 24 10.746094 24 24zm0 0" fill="#ff3051"/><path d="m220.320312 296c-1.398437 4.484375-3.21875 8.824219-5.441406 12.960938l25.28125 25.277343-33.921875 33.921875-25.277343-25.28125c-4.136719 2.222656-8.476563 4.042969-12.960938 5.441406v35.679688h-48v-35.679688c-4.484375-1.398437-8.824219-3.21875-12.960938-5.441406l-25.277343 25.28125-33.921875-33.921875 25.28125-25.277343c-2.222656-4.136719-4.042969-8.476563-5.441406-12.960938h-35.679688v-48h35.679688c1.398437-4.484375 3.21875-8.824219 5.441406-12.960938l-25.28125-25.277343 33.921875-33.921875 25.277343 25.28125c4.136719-2.222656 8.476563-4.042969 12.960938-5.441406v-35.679688h48v35.679688c4.484375 1.398437 8.824219 3.21875 12.960938 5.441406l25.277343-25.28125 33.921875 33.921875-25.28125 25.277343c2.222656 4.136719 4.042969 8.476563 5.441406 12.960938h35.679688v48zm0 0" fill="#00479b"/><path d="m184 272c0 22.089844-17.910156 40-40 40s-40-17.910156-40-40 17.910156-40 40-40 40 17.910156 40 40zm0 0" fill="#bcbec0"/><path d="m397.199219 368c-.488281 1.605469-1.128907 3.160156-1.917969 4.640625l24.640625 24.640625-22.640625 22.640625-24.640625-24.640625c-1.480469.789062-3.035156 1.429688-4.640625 1.917969v34.800781h-32v-34.800781c-1.605469-.488281-3.160156-1.128907-4.640625-1.917969l-24.640625 24.640625-22.640625-22.640625 24.640625-24.640625c-.789062-1.480469-1.429688-3.035156-1.917969-4.640625h-34.800781v-32h34.800781c.488281-1.605469 1.128907-3.160156 1.917969-4.640625l-24.640625-24.640625 22.640625-22.640625 24.640625 24.640625c1.480469-.789062 3.035156-1.429688 4.640625-1.917969v-34.800781h32v34.800781c1.605469.488281 3.160156 1.128907 4.640625 1.917969l24.640625-24.640625 22.640625 22.640625-24.640625 24.640625c.789062 1.480469 1.429688 3.035156 1.917969 4.640625h34.800781v32zm0 0" fill="#ffcd00"/><path d="m368 352c0 8.835938-7.164062 16-16 16s-16-7.164062-16-16 7.164062-16 16-16 16 7.164062 16 16zm0 0" fill="#d1d3d4"/></svg>