<?xml version="1.0" encoding="iso-8859-1"?>
<!-- Generator: Adobe Illustrator 19.0.0, SVG Export Plug-In . SVG Version: 6.00 Build 0)  -->
<svg version="1.1" id="Capa_1" xmlns="http://www.w3.org/2000/svg" xmlns:xlink="http://www.w3.org/1999/xlink" x="0px" y="0px"
	 viewBox="0 0 476.785 476.785" style="enable-background:new 0 0 476.785 476.785;" xml:space="preserve">
<g>
	<path style="fill:#00ACEA;" d="M460.544,379.39v57.34c0,11.52-17.9,21.52-44.18,26.57c-12.816,2.369-25.827,3.534-38.86,3.48
		c-45.88,0-83.05-13.45-83.05-30.05v-57.34c0,16.61,37.17,30.05,83.05,30.05S460.544,396,460.544,379.39L460.544,379.39z"/>
	<path style="fill:#00ACEA;" d="M460.544,378.2v1.19c0,16.61-37.17,30.05-83.04,30.05s-83.05-13.44-83.05-30.05v-56.95
		c0,16.61,37.17,30.06,83.05,30.06s83.04-13.45,83.04-30.06V378.2z"/>
	<path style="fill:#00ACEA;" d="M294.454,297.9v-32.4c0,16.6,37.18,30.05,83.05,30.05s83.04-13.45,83.04-30.05v56.94
		c0,16.61-37.17,30.06-83.04,30.06s-83.05-13.45-83.05-30.06V297.9z"/>
	<path style="fill:#00ACEA;" d="M422.444,240.22c22.92,5.35,38.1,14.67,38.1,25.28c0,16.6-37.18,30.05-83.04,30.05
		s-83.05-13.45-83.05-30.05c0-11.08,16.57-20.77,41.24-25.97c13.759-2.795,27.77-4.165,41.81-4.09
		C392.616,235.341,407.691,236.944,422.444,240.22z"/>
</g>
<g>
	<path style="fill:#083863;" d="M433.452,232.817c0.543-6.254,0.847-12.561,0.847-18.827
		c0.1-116.043-92.386-210.981-208.392-213.916C224.155,0.024,222.332,0,220.332,0s-3.822,0.024-5.543,0.074
		C96.645,3.135,3.353,101.392,6.414,219.535c1.323,51.045,20.855,99.934,55.068,137.839c39.235,43.567,94.666,69.075,153.278,70.534
		c1.757,0.05,3.58,0.074,5.574,0.074s3.813-0.024,5.526-0.073c19.885-0.494,39.603-3.762,58.584-9.711v18.532
		c0,8.88,5.369,21.407,30.922,30.653c16.747,6.06,38.815,9.4,62.135,9.4c13.652,0.062,27.279-1.163,40.7-3.66
		c33.232-6.389,52.243-19.653,52.243-36.393V265.5C470.444,251.449,457.423,240.008,433.452,232.817L433.452,232.817z
		 M284.444,356.052c-15,20.246-33,36.409-54,48.155v-109.9c18.412,0.926,36.597,4.484,54,10.565V356.052z M69.325,335.952
		c-25.701-31.721-40.659-70.788-42.716-111.562h67.475c0.884,28,5.6,55.97,14.07,81.275c-14.091,8.532-27.124,18.698-38.829,30.288
		V335.952z M69.325,92.424c11.699,11.654,24.731,21.888,38.827,30.49c-8.657,26.322-13.397,53.775-14.068,81.476H26.609
		c2.053-40.897,17.008-80.093,42.718-111.965L69.325,92.424z M370.893,91.867c26.102,31.897,41.238,71.352,43.166,112.523h-67.475
		c-0.687-27.829-5.469-55.405-14.192-81.841c13.985-8.694,26.906-18.99,38.503-30.681L370.893,91.867z M326.576,204.39h-96.132
		v-50.719c29.231-1.314,57.884-8.59,84.2-21.381C321.788,154.69,325.744,178.39,326.576,204.39L326.576,204.39z M210.444,274.308
		c-29.289,1.444-57.988,8.771-84.384,21.545c-7.238-23.162-11.265-47.207-11.969-71.463h96.353V274.308z M114.091,204.39
		c0.621-24.395,4.649-48.584,11.969-71.863c26.421,12.648,55.121,19.84,84.384,21.145v50.718H114.091z M230.444,133.65V23.778
		c34,19.046,60.682,49.68,77.312,89.426C283.691,125.331,257.358,132.295,230.444,133.65z M210.444,23.778v109.875
		c-26.917-1.349-53.267-8.229-77.408-20.212C149.661,73.575,176.444,42.86,210.444,23.778L210.444,23.778z M210.444,294.328v109.875
		c-34-19.082-60.783-49.8-77.409-89.664C157.176,302.557,183.527,295.676,210.444,294.328z M284.444,265.5v18.29
		c-17.512-5.496-35.664-8.696-54-9.518V224.39h96.129c-0.084,2-0.2,4.822-0.344,7.305C299.568,238.69,284.444,250.69,284.444,265.5z
		 M346.582,224.39h67.47c-0.073,1-0.166,2.683-0.27,4.123c-11.992-1.977-24.125-2.971-36.278-2.973
		c-10.385,0.039-20.755,0.79-31.038,2.246C346.516,226.608,346.544,225.39,346.582,224.39z M357.482,76.79
		c-9.792,9.957-20.645,18.81-32.367,26.4c-13.4-31.135-32.439-57.162-56.231-77.071c33.533,8.667,64.129,26.167,88.6,50.677
		L357.482,76.79z M138.071,38.25c10.834-5.084,22.118-9.145,33.706-12.132c-23.886,19.988-42.975,46.142-56.385,77.446
		c-11.84-7.518-22.81-16.327-32.707-26.265C98.702,61.12,117.452,47.901,138.071,38.25L138.071,38.25z M82.684,350.68
		c9.897-9.938,20.867-18.747,32.708-26.264c13.411,31.3,32.5,57.459,56.388,77.447c-33.768-8.723-64.553-26.407-89.1-51.183
		L82.684,350.68z M268.854,401.859c5.459-4.601,10.663-9.496,15.59-14.663v9.935C279.444,398.929,274.109,400.505,268.854,401.859z
		 M414.434,453.478c-12.19,2.242-24.561,3.347-36.955,3.3c-21.059,0-40.7-2.913-55.32-8.2
		c-13.391-4.847-17.715-10.075-17.715-11.848v-31.423c3.518,1.85,7.169,3.434,10.923,4.74c16.743,6.057,38.811,9.393,62.134,9.393
		s45.332-3.336,62.075-9.393c3.737-1.305,7.37-2.889,10.868-4.74v31.423C450.444,439.246,441.615,448.255,414.434,453.478
		L414.434,453.478z M450.444,379.39c0,1.774-4.282,7.006-17.671,11.85c-14.615,5.288-34.237,8.2-55.294,8.2s-40.7-2.912-55.321-8.2
		c-13.39-4.844-17.714-10.076-17.714-11.85v-31.03c3.517,1.85,7.168,3.436,10.922,4.742c16.745,6.06,38.813,9.4,62.135,9.4
		s45.332-3.338,62.077-9.4c3.736-1.305,7.368-2.89,10.866-4.741V379.39z M432.772,334.296c-14.617,5.29-34.238,8.2-55.293,8.2
		s-40.7-2.914-55.32-8.2c-13.391-4.847-17.715-10.081-17.715-11.856v-31.029c3.519,1.851,7.172,3.437,10.927,4.743
		c16.748,6.059,38.814,9.4,62.13,9.4s45.326-3.337,62.072-9.4c3.738-1.306,7.372-2.891,10.871-4.743v31.029
		C450.444,324.215,446.162,329.449,432.772,334.296z M432.819,277.347c-14.62,5.29-34.265,8.2-55.315,8.2s-40.7-2.913-55.324-8.2
		c-13.393-4.846-17.726-10.074-17.726-11.847c0-2.447,7.892-10.829,33.3-16.185h0.009c13.079-2.644,26.395-3.941,39.739-3.873
		c14.347-0.095,28.659,1.42,42.667,4.518c23.174,5.41,30.373,13.285,30.373,15.542C450.544,267.273,446.211,272.501,432.819,277.347
		L432.819,277.347z"/>
	<path style="fill:#083863;" d="M391.444,313.39h-29c-5.523,0-10,4.477-10,10s4.477,10,10,10h29c5.523,0,10-4.477,10-10
		S396.967,313.39,391.444,313.39z"/>
	<path style="fill:#083863;" d="M391.444,371.39h-29c-5.523,0-10,4.477-10,10s4.477,10,10,10h29c5.523,0,10-4.477,10-10
		S396.967,371.39,391.444,371.39z"/>
	<path style="fill:#083863;" d="M391.444,429.39h-29c-5.523,0-10,4.477-10,10s4.477,10,10,10h29c5.523,0,10-4.477,10-10
		S396.967,429.39,391.444,429.39z"/>
</g>
<g>
</g>
<g>
</g>
<g>
</g>
<g>
</g>
<g>
</g>
<g>
</g>
<g>
</g>
<g>
</g>
<g>
</g>
<g>
</g>
<g>
</g>
<g>
</g>
<g>
</g>
<g>
</g>
<g>
</g>
</svg>
