<?xml version="1.0" encoding="iso-8859-1"?>
<!-- Generator: Adobe Illustrator 19.0.0, SVG Export Plug-In . SVG Version: 6.00 Build 0)  -->
<svg version="1.1" id="Capa_1" xmlns="http://www.w3.org/2000/svg" xmlns:xlink="http://www.w3.org/1999/xlink" x="0px" y="0px"
	 viewBox="0 0 503.887 503.887" style="enable-background:new 0 0 503.887 503.887;" xml:space="preserve">
<g>
	<g transform="translate(2 1)">
		<path style="fill:#AD1457;" d="M121.435,340.158c-15.733,15.733-38.254,22.622-60.096,18.382
			c-13.242-2.419-25.427-8.834-34.916-18.382c-26.189-26.257-26.189-68.756,0-95.013c9.489-9.548,21.674-15.963,34.916-18.382
			c28.966-5.585,58.182,8.401,71.996,34.466C147.149,287.294,142.32,319.324,121.435,340.158L121.435,340.158z"/>
		<path style="fill:#2E7D32;" d="M297.697,466.06c-15.733,15.733-38.254,22.622-60.096,18.382
			c-13.242-2.419-25.427-8.834-34.916-18.382c-26.189-26.257-26.189-68.756,0-95.013c9.489-9.548,21.674-15.963,34.916-18.382
			c28.966-5.585,58.182,8.401,71.996,34.467C323.411,413.196,318.582,445.226,297.697,466.06L297.697,466.06z"/>
		<path style="fill:#FDD834;" d="M473.96,340.158c-15.733,15.733-38.254,22.622-60.096,18.382
			c-13.242-2.419-25.427-8.834-34.916-18.382c-26.189-26.257-26.189-68.756,0-95.013c9.489-9.548,21.674-15.963,34.916-18.382
			c28.966-5.585,58.182,8.401,71.996,34.466C499.673,287.294,494.844,319.324,473.96,340.158L473.96,340.158z"/>
		<path style="fill:#E91E63;" d="M110.692,318.588c-3.364,8.061-8.268,15.388-14.437,21.571
			c-9.489,9.548-21.674,15.963-34.916,18.382c-1.528-0.255-3.041-0.591-4.532-1.007c-0.923-0.252-1.847-0.504-2.77-0.839
			c-1.17-0.287-2.32-0.651-3.441-1.091c-0.336-0.168-0.671-0.252-1.09-0.42c-1.373-0.516-2.719-1.104-4.03-1.763
			c-1.511-0.672-2.938-1.426-4.448-2.266c-1.428-0.755-2.855-1.679-4.281-2.602c-3.722-2.434-7.182-5.247-10.324-8.393
			c-26.189-26.257-26.189-68.756,0-95.013c9.489-9.548,21.674-15.963,34.916-18.382c13.242,2.42,25.427,8.834,34.916,18.382
			C115.519,264.431,121.222,293.444,110.692,318.588z"/>
		<path style="fill:#4CAF50;" d="M286.954,444.489c-3.364,8.061-8.268,15.388-14.438,21.571
			c-9.489,9.548-21.674,15.963-34.916,18.382c-1.528-0.255-3.041-0.591-4.532-1.007c-0.923-0.252-1.847-0.504-2.77-0.839
			c-1.17-0.287-2.32-0.651-3.441-1.091c-0.336-0.168-0.671-0.252-1.09-0.42c-1.373-0.516-2.719-1.104-4.03-1.763
			c-1.511-0.672-2.938-1.426-4.448-2.266c-1.428-0.755-2.855-1.679-4.281-2.603c-3.722-2.434-7.182-5.247-10.324-8.393
			c-26.189-26.257-26.189-68.756,0-95.013c9.489-9.548,21.674-15.963,34.916-18.383c13.242,2.42,25.427,8.834,34.916,18.383
			C291.781,390.333,297.485,419.346,286.954,444.489z"/>
		<path style="fill:#FFEB3A;" d="M463.217,318.588c-3.364,8.061-8.268,15.388-14.438,21.571
			c-9.489,9.548-21.674,15.963-34.916,18.382c-1.528-0.255-3.041-0.591-4.532-1.007c-0.923-0.252-1.847-0.504-2.77-0.839
			c-1.17-0.287-2.32-0.651-3.441-1.091c-0.336-0.168-0.672-0.252-1.09-0.42c-1.373-0.516-2.719-1.104-4.03-1.763
			c-1.511-0.672-2.938-1.426-4.448-2.266c-1.428-0.755-2.855-1.679-4.281-2.602c-3.722-2.434-7.182-5.247-10.324-8.393
			c-26.189-26.257-26.189-68.756,0-95.013c9.489-9.548,21.674-15.963,34.916-18.382c13.242,2.42,25.427,8.834,34.916,18.382
			C468.043,264.431,473.747,293.444,463.217,318.588z"/>
		<path style="fill:#37474F;" d="M392.88,141.57c-0.042,27.796-22.565,50.319-50.361,50.361H157.863
			c-27.804-0.022-50.339-22.556-50.361-50.361c0.042-27.796,22.565-50.319,50.361-50.361h0.504
			c-0.338-2.785-0.506-5.588-0.504-8.393c-0.011-32.237,22.891-59.931,54.557-65.972c4.152-0.777,8.366-1.17,12.59-1.175
			c20.973-0.038,40.744,9.785,53.382,26.523c0.168,0.168,0.252,0.336,0.419,0.504c0.242-0.096,0.497-0.152,0.756-0.168
			c4.095-1.156,8.335-1.721,12.59-1.679c27.804,0.022,50.339,22.556,50.361,50.361C370.323,91.231,392.858,113.765,392.88,141.57z"
			/>
		<g>
			<path style="fill:#607D8B;" d="M367.699,141.57c-0.042,27.796-22.565,50.319-50.361,50.361H157.863
				c-27.804-0.022-50.339-22.556-50.361-50.361c0.042-27.796,22.565-50.319,50.361-50.361h0.504
				c-0.338-2.785-0.506-5.588-0.504-8.393c-0.011-32.237,22.891-59.931,54.557-65.972c16.486,3.161,31.19,12.385,41.211,25.852
				c8.076-2.277,16.6-2.451,24.761-0.504c0.404,0.062,0.799,0.174,1.175,0.336c22.21,5.729,37.74,25.746,37.77,48.683
				C345.143,91.231,367.678,113.765,367.699,141.57z"/>
			<path style="fill:#607D8B;" d="M114.218,333.947c0.017,5.034-1.042,10.013-3.107,14.605c-14.638,9.73-32.514,13.317-49.773,9.989
				c13.242-2.419,25.427-8.834,34.916-18.382c6.169-6.183,11.073-13.51,14.437-21.571
				C113.011,323.376,114.217,328.627,114.218,333.947z"/>
		</g>
		<path style="fill:#CFD8DC;" d="M110.692,318.588c-3.364,8.061-8.268,15.388-14.437,21.571
			c-9.489,9.548-21.674,15.963-34.916,18.382c-1.528-0.255-3.041-0.591-4.532-1.007c-0.923-0.252-1.847-0.504-2.77-0.839
			c-1.17-0.287-2.32-0.651-3.441-1.091c-0.336-0.168-0.671-0.252-1.09-0.42c-1.373-0.516-2.719-1.104-4.03-1.763
			c-1.511-0.672-2.938-1.426-4.448-2.266c-1.428-0.755-2.855-1.679-4.281-2.602c-2.065-4.591-3.124-9.571-3.107-14.605
			c0.185-14.013,8.232-26.732,20.815-32.902l0.42-0.42c4.75,5.591,11.717,8.813,19.053,8.813s14.303-3.222,19.053-8.813l0.42,0.42
			C100.934,304.838,107.009,311.002,110.692,318.588z"/>
		<path style="fill:#FFFFFF;" d="M99.109,284.258c0.038,6.023-2.143,11.85-6.127,16.367c-4.75,5.591-11.717,8.813-19.053,8.813
			s-14.303-3.222-19.053-8.813c-3.984-4.518-6.165-10.344-6.127-16.367c0-13.907,11.274-25.18,25.18-25.18
			S99.109,270.352,99.109,284.258z"/>
		<path style="fill:#607D8B;" d="M290.48,459.849c0.017,5.034-1.042,10.013-3.107,14.605c-14.638,9.73-32.514,13.317-49.773,9.989
			c13.242-2.419,25.427-8.834,34.916-18.382c6.169-6.183,11.073-13.51,14.438-21.571
			C289.273,449.277,290.479,454.528,290.48,459.849z"/>
		<path style="fill:#CFD8DC;" d="M286.954,444.489c-3.364,8.061-8.268,15.388-14.438,21.571
			c-9.489,9.548-21.674,15.963-34.916,18.382c-1.528-0.255-3.041-0.591-4.532-1.007c-0.923-0.252-1.847-0.504-2.77-0.839
			c-1.17-0.287-2.32-0.651-3.441-1.091c-0.336-0.168-0.671-0.252-1.09-0.42c-1.373-0.516-2.719-1.104-4.03-1.763
			c-1.511-0.672-2.938-1.426-4.448-2.266c-1.428-0.755-2.855-1.679-4.281-2.603c-2.065-4.591-3.124-9.571-3.107-14.605
			c0.185-14.013,8.232-26.732,20.815-32.902l0.42-0.42c4.75,5.591,11.717,8.813,19.053,8.813c7.337,0,14.303-3.222,19.053-8.813
			l0.42,0.42C277.196,430.739,283.271,436.903,286.954,444.489z"/>
		<path style="fill:#FFFFFF;" d="M275.371,410.16c0.038,6.023-2.143,11.85-6.127,16.367c-4.75,5.591-11.717,8.813-19.053,8.813
			s-14.303-3.222-19.053-8.813c-3.984-4.518-6.165-10.344-6.127-16.367c0-13.907,11.274-25.18,25.18-25.18
			C264.098,384.98,275.371,396.253,275.371,410.16z"/>
		<path style="fill:#607D8B;" d="M466.742,333.947c0.017,5.034-1.042,10.013-3.107,14.605c-14.638,9.73-32.514,13.317-49.773,9.989
			c13.242-2.419,25.427-8.834,34.916-18.382c6.169-6.183,11.073-13.51,14.438-21.571
			C465.536,323.376,466.741,328.627,466.742,333.947z"/>
		<path style="fill:#CFD8DC;" d="M463.217,318.588c-3.364,8.061-8.268,15.388-14.438,21.571
			c-9.489,9.548-21.674,15.963-34.916,18.382c-1.528-0.255-3.041-0.591-4.532-1.007c-0.923-0.252-1.847-0.504-2.77-0.839
			c-1.17-0.287-2.32-0.651-3.441-1.091c-0.336-0.168-0.672-0.252-1.09-0.42c-1.373-0.516-2.719-1.104-4.03-1.763
			c-1.511-0.672-2.938-1.426-4.448-2.266c-1.428-0.755-2.855-1.679-4.281-2.602c-2.065-4.591-3.124-9.571-3.107-14.605
			c0.185-14.013,8.232-26.732,20.815-32.902l0.42-0.42c4.75,5.591,11.717,8.813,19.053,8.813c7.337,0,14.303-3.222,19.053-8.813
			l0.42,0.42C453.458,304.837,459.534,311.002,463.217,318.588z"/>
		<path style="fill:#FFFFFF;" d="M451.634,284.258c0.038,6.023-2.143,11.85-6.127,16.367c-4.75,5.591-11.717,8.813-19.053,8.813
			s-14.303-3.222-19.053-8.813c-3.984-4.518-6.165-10.344-6.127-16.367c0-13.907,11.274-25.18,25.18-25.18
			S451.634,270.352,451.634,284.258z"/>
	</g>
	<path d="M129.347,240.234c-27.871-27.988-72.577-29.844-102.672-4.261s-35.463,70.004-12.328,102.019
		c23.135,32.015,66.996,40.862,100.732,20.318c33.736-20.544,46.007-63.572,28.182-98.821l100.537-52.681v137.756
		c-39.96,4.455-69.48,39.35-67.249,79.496c2.231,40.146,35.435,71.556,75.643,71.556s73.412-31.41,75.643-71.556
		c2.231-40.146-27.289-75.041-67.249-79.496v-137.76l100.537,52.684c-17.737,35.124-5.495,77.982,28.119,98.438
		c33.614,20.456,77.305,11.637,100.352-20.256c23.047-31.893,17.706-76.144-12.267-101.638
		c-29.973-25.494-74.508-23.665-102.289,4.202c-1.656,1.656-3.187,3.389-4.657,5.156l-84.089-44.065h58.229
		c32.433-0.039,58.715-26.321,58.754-58.754c-0.051-29.399-21.807-54.243-50.943-58.172c-3.929-29.135-28.773-50.891-58.172-50.943
		c-3.411,0.028-6.813,0.362-10.165,0.996c-20.593-23.893-53.881-32.444-83.44-21.433s-49.141,39.255-49.084,70.798
		c0,0.223,0.037,0.431,0.039,0.654c-28.911,4.139-50.386,28.895-50.4,58.1c0.039,32.433,26.321,58.715,58.754,58.754h58.23
		l-84.089,44.066C132.533,243.623,131.003,241.889,129.347,240.234z M398.222,343.961c-1.059-2.881-1.621-5.92-1.662-8.989
		c0.128-9.085,4.597-17.56,12.02-22.798c11.761,8.878,27.985,8.878,39.746,0c7.424,5.238,11.892,13.713,12.02,22.798
		c-0.041,3.068-0.602,6.106-1.66,8.986C440.071,355.095,416.839,355.096,398.222,343.961z M428.453,302.045
		c-9.271,0-16.787-7.516-16.787-16.787s7.516-16.787,16.787-16.787c9.271,0,16.787,7.516,16.787,16.787
		C445.228,294.525,437.72,302.033,428.453,302.045z M428.453,234.931c21.944-0.028,42.07,12.192,52.166,31.676
		c10.096,19.484,8.475,42.973-4.203,60.885c-2.041-11.311-8.297-21.426-17.504-28.304c2.034-4.363,3.097-9.115,3.115-13.928
		c0-18.542-15.031-33.574-33.574-33.574s-33.574,15.031-33.574,33.574c0.018,4.813,1.081,9.566,3.115,13.928
		c-9.207,6.879-15.462,16.994-17.504,28.304c-12.677-17.912-14.299-41.401-4.203-60.885
		C386.384,247.123,406.509,234.902,428.453,234.931z M221.96,469.863c-1.059-2.881-1.621-5.92-1.662-8.989
		c0.128-9.085,4.597-17.56,12.02-22.798c11.761,8.878,27.985,8.878,39.746,0c7.424,5.238,11.892,13.713,12.02,22.798
		c-0.041,3.068-0.602,6.106-1.66,8.986C263.809,480.997,240.577,480.998,221.96,469.863L221.96,469.863z M252.191,427.947
		c-9.271,0-16.787-7.516-16.787-16.787c0-9.271,7.516-16.787,16.787-16.787c9.271,0,16.787,7.516,16.787,16.787
		C268.966,420.426,261.457,427.935,252.191,427.947z M300.154,453.393c-2.041-11.311-8.297-21.426-17.504-28.304
		c2.034-4.363,3.097-9.115,3.115-13.928c0-18.542-15.031-33.574-33.574-33.574s-33.574,15.031-33.574,33.574
		c0.018,4.813,1.081,9.566,3.115,13.928c-9.207,6.879-15.462,16.994-17.504,28.304c-17.229-24.387-13.417-57.82,8.861-77.701
		s55.927-19.882,78.205,0C313.571,395.573,317.384,429.006,300.154,453.393z M117.896,142.57
		c0.018-11.212,4.514-21.952,12.489-29.832s18.767-12.249,29.978-12.135h0.003c0.336,0.001,0.672-0.018,1.005-0.057
		c0.866-0.288,1.731-0.576,2.597-0.863c0.649-0.333,1.25-0.751,1.787-1.244c0.173-0.159,0.366-0.281,0.525-0.455
		c1.804-1.771,2.695-4.271,2.419-6.783c-0.3-2.45-0.448-4.917-0.443-7.385c-0.052-23.294,13.692-44.409,35.014-53.79
		s46.174-5.249,63.313,10.528c-19.125,10.15-31.109,30.004-31.179,51.656c0,4.636,3.758,8.393,8.393,8.393
		c4.636,0,8.393-3.758,8.393-8.393c0.024-18.93,12.715-35.501,30.984-40.459c3.571-1.023,7.269-1.531,10.984-1.508
		c23.167,0.027,41.94,18.801,41.967,41.967c-0.001,2.226,0.883,4.362,2.457,5.936c1.574,1.574,3.71,2.458,5.936,2.457
		c23.167,0.027,41.94,18.801,41.967,41.967c-0.037,23.163-18.805,41.93-41.967,41.967H159.863
		C136.697,184.51,117.923,165.736,117.896,142.57z M45.697,343.961c-1.059-2.881-1.621-5.92-1.662-8.989
		c0.128-9.085,4.597-17.56,12.02-22.798c11.761,8.878,27.985,8.878,39.746,0c7.424,5.238,11.892,13.713,12.02,22.798
		c-0.041,3.068-0.602,6.106-1.66,8.986C87.546,355.095,64.315,355.096,45.697,343.961z M75.929,302.045
		c-9.271,0-16.787-7.516-16.787-16.787s7.516-16.787,16.787-16.787s16.787,7.516,16.787,16.787
		C92.704,294.525,85.195,302.033,75.929,302.045z M123.892,327.491c-2.041-11.311-8.297-21.426-17.504-28.304
		c2.034-4.363,3.097-9.115,3.115-13.928c0-18.542-15.031-33.574-33.574-33.574s-33.574,15.031-33.574,33.574
		c0.018,4.813,1.081,9.566,3.115,13.928c-9.207,6.879-15.462,16.994-17.504,28.304c-17.229-24.387-13.417-57.82,8.861-77.701
		s55.927-19.882,78.205,0S141.121,303.104,123.892,327.491z"/>
</g>
<g>
</g>
<g>
</g>
<g>
</g>
<g>
</g>
<g>
</g>
<g>
</g>
<g>
</g>
<g>
</g>
<g>
</g>
<g>
</g>
<g>
</g>
<g>
</g>
<g>
</g>
<g>
</g>
<g>
</g>
</svg>
