<?xml version="1.0" encoding="iso-8859-1"?>
<!-- Generator: Adobe Illustrator 19.0.0, SVG Export Plug-In . SVG Version: 6.00 Build 0)  -->
<svg version="1.1" id="Capa_1" xmlns="http://www.w3.org/2000/svg" xmlns:xlink="http://www.w3.org/1999/xlink" x="0px" y="0px"
	 viewBox="0 0 480 480" style="enable-background:new 0 0 480 480;" xml:space="preserve">
<g>
	<polygon style="fill:#086788;" points="112,344 152,344 152,312 64,312 64,360 112,360 	"/>
	<polygon style="fill:#086788;" points="368,136 320,136 320,168 416,168 416,120 368,120 	"/>
	<polygon style="fill:#086788;" points="152,136 112,136 112,120 56,120 56,168 152,168 	"/>
	<polygon style="fill:#086788;" points="320,344 368,344 368,360 416,360 416,312 320,312 	"/>
</g>
<polygon style="fill:#DD3232;" points="320,312 320,280 152,280 152,312 152,344 320,344 "/>
<polygon style="fill:#FFB40E;" points="368,136 368,120 368,72 368,56 112,56 112,72 112,120 112,136 152,136 320,136 "/>
<g>
	<polygon style="fill:#06AED5;" points="112,72 112,56 368,56 368,72 368,120 416,120 472,120 472,8 8,8 8,120 56,120 112,120 	"/>
	<polygon style="fill:#06AED5;" points="152,280 112,280 112,240 112,200 152,200 152,168 56,168 8,168 8,312 64,312 152,312 	"/>
	<polygon style="fill:#06AED5;" points="320,200 368,200 368,240 368,280 320,280 320,312 416,312 472,312 472,168 416,168 320,168 
			"/>
</g>
<polygon style="fill:#DD3232;" points="320,168 320,136 152,136 152,168 152,200 320,200 "/>
<polygon style="fill:#06AED5;" points="472,360 416,360 368,360 368,408 368,424 112,424 112,408 112,360 64,360 8,360 8,472 
	472,472 "/>
<g>
	<polygon style="fill:#FFB40E;" points="368,280 368,240 368,200 320,200 152,200 112,200 112,240 112,280 152,280 320,280 	"/>
	<polygon style="fill:#FFB40E;" points="320,344 152,344 112,344 112,360 112,408 112,424 368,424 368,408 368,360 368,344 	"/>
</g>
<g>
	<path style="fill:#242A40;" d="M8,480h464c4.424,0,8-3.584,8-8V360c0-4.416-3.576-8-8-8h-48v-32h48c4.424,0,8-3.584,8-8V168
		c0-4.416-3.576-8-8-8h-48v-32h48c4.424,0,8-3.584,8-8V8c0-4.416-3.576-8-8-8H8C3.576,0,0,3.584,0,8v112c0,4.416,3.576,8,8,8h40v32
		H8c-4.424,0-8,3.584-8,8v144c0,4.416,3.576,8,8,8h48v32H8c-4.424,0-8,3.584-8,8v112C0,476.416,3.576,480,8,480z M408,352h-32v-8
		c0-4.416-3.576-8-8-8h-40v-16h80V352z M120,360v-8h240v8v56H120V360z M120,120V64h240v56v8H120V120z M312,144v16H160v-16H312z
		 M312,176v16H160v-16H312z M360,208v64H120v-64H360z M312,288v16H160v-16H312z M312,320v16H160v-16H312z M464,304H328v-16h40
		c4.424,0,8-3.584,8-8v-32h56v-16h-56v-32c0-4.416-3.576-8-8-8h-40v-16h136V304z M408,160h-80v-16h40c4.424,0,8-3.584,8-8v-8h32V160
		z M16,16h448v96h-88V80h56V64h-56v-8c0-4.416-3.576-8-8-8H112c-4.424,0-8,3.584-8,8v8H48v16h56v32H16V16z M64,128h40v8
		c0,4.416,3.576,8,8,8h32v16H64V128z M16,176h128v16h-32c-4.424,0-8,3.584-8,8v32H48v16h56v32c0,4.416,3.576,8,8,8h32v16H16V176z
		 M72,320h72v16h-32c-4.424,0-8,3.584-8,8v8H72V320z M16,368h88v32H48v16h56v8c0,4.416,3.576,8,8,8h256c4.424,0,8-3.584,8-8v-8h56
		v-16h-56v-32h88v96H16V368z"/>
	<rect x="136" y="88" style="fill:#242A40;" width="136" height="16"/>
	<rect x="304" y="88" style="fill:#242A40;" width="40" height="16"/>
	<rect x="136" y="232" style="fill:#242A40;" width="136" height="16"/>
	<rect x="304" y="232" style="fill:#242A40;" width="40" height="16"/>
	<rect x="136" y="376" style="fill:#242A40;" width="136" height="16"/>
	<rect x="304" y="376" style="fill:#242A40;" width="40" height="16"/>
</g>
<g>
</g>
<g>
</g>
<g>
</g>
<g>
</g>
<g>
</g>
<g>
</g>
<g>
</g>
<g>
</g>
<g>
</g>
<g>
</g>
<g>
</g>
<g>
</g>
<g>
</g>
<g>
</g>
<g>
</g>
</svg>
