<?xml version="1.0" encoding="iso-8859-1"?>
<!-- Generator: Adobe Illustrator 19.0.0, SVG Export Plug-In . SVG Version: 6.00 Build 0)  -->
<svg version="1.1" id="Capa_1" xmlns="http://www.w3.org/2000/svg" xmlns:xlink="http://www.w3.org/1999/xlink" x="0px" y="0px"
	 viewBox="0 0 480 480" style="enable-background:new 0 0 480 480;" xml:space="preserve">
<path style="fill:#FFF1D0;" d="M472,40c0-17.672-14.328-32-32-32H40C22.328,8,8,22.328,8,40v288h464V40z M184,296H40v-80h144V296z
	 M183.656,118.816c-0.072,0.744-0.192,1.472-0.28,2.208c-0.184,1.496-0.4,2.976-0.68,4.44c-0.16,0.856-0.352,1.688-0.544,2.536
	c-0.304,1.32-0.632,2.624-1.008,3.912c-0.248,0.872-0.504,1.736-0.784,2.6c-0.408,1.232-0.864,2.448-1.336,3.648
	c-0.328,0.84-0.64,1.688-0.992,2.512c-0.544,1.24-1.144,2.44-1.752,3.64c-0.784,1.56-1.632,3.08-2.528,4.568
	c-0.528,0.88-1.032,1.776-1.6,2.632c-0.704,1.072-1.472,2.096-2.232,3.128c-0.464,0.624-0.92,1.264-1.4,1.872
	c-0.848,1.072-1.736,2.112-2.648,3.136c-0.432,0.48-0.856,0.96-1.304,1.432c-1.016,1.08-2.048,2.136-3.128,3.16
	c-0.304,0.288-0.616,0.56-0.92,0.84c-6.872,6.264-14.936,11.232-23.848,14.488c-0.072,0.024-0.152,0.056-0.224,0.08
	c-1.808,0.656-3.656,1.24-5.528,1.752l0,0c-6.024,1.664-12.36,2.6-18.92,2.6c-39.768,0-72-32.232-72-72
	c0-1.616,0.168-3.192,0.28-4.784h-0.032c0.016-0.208,0.056-0.408,0.072-0.616c0.144-1.848,0.344-3.672,0.624-5.472
	c0.104-0.688,0.232-1.368,0.36-2.048c0.296-1.616,0.616-3.224,1.024-4.8c0.248-0.992,0.56-1.952,0.856-2.928
	c0.384-1.264,0.736-2.544,1.192-3.784c0.808-2.232,1.704-4.424,2.712-6.544c0.112-0.232,0.224-0.464,0.336-0.696
	c1.248-2.536,2.608-4.992,4.128-7.352c0.04-0.064,0.072-0.12,0.112-0.184c3.072-4.752,6.736-9.088,10.832-12.984
	c0.48-0.456,0.984-0.896,1.48-1.344c1.584-1.424,3.232-2.768,4.936-4.048c0.56-0.424,1.112-0.856,1.688-1.264
	c2.224-1.568,4.52-3.048,6.92-4.368c0,0,0,0,0.008,0l0,0c2.384-1.304,4.856-2.44,7.392-3.472c0.664-0.272,1.344-0.488,2.016-0.736
	c1.88-0.696,3.784-1.328,5.728-1.872c0.864-0.24,1.736-0.464,2.608-0.672c1.904-0.456,3.832-0.816,5.784-1.112
	c0.832-0.128,1.656-0.28,2.496-0.384C106.328,40.208,109.136,40,112,40c39.768,0,72,32.232,72,72
	C184,114.304,183.864,116.568,183.656,118.816z"/>
<path style="fill:#FFB40E;" d="M40.28,107.216C40.168,108.808,40,110.384,40,112c0,39.768,32.232,72,72,72
	c6.56,0,12.896-0.936,18.928-2.6L112,112L40.28,107.216z"/>
<rect x="224" y="376" style="fill:#086788;" width="32" height="48"/>
<g>
	<path style="fill:#06AED5;" d="M152,424c-17.672,0-32,14.328-32,32v16h240v-16c0-17.672-14.328-32-32-32h-72h-32H152z"/>
	<path style="fill:#06AED5;" d="M40,376h184h32h184c17.672,0,32-14.328,32-32v-16H8v16C8,361.672,22.328,376,40,376z"/>
</g>
<g>
	<rect x="40" y="216" style="fill:#DD3232;" width="144" height="80"/>
	<path style="fill:#DD3232;" d="M77.52,48.784C77.52,48.792,77.52,48.792,77.52,48.784c-2.408,1.32-4.696,2.8-6.928,4.368
		c-0.576,0.408-1.128,0.84-1.688,1.264c-1.704,1.28-3.352,2.632-4.936,4.048c-0.496,0.448-0.992,0.888-1.472,1.344
		c-4.096,3.896-7.76,8.232-10.84,12.992c-0.04,0.056-0.072,0.12-0.112,0.184c-1.52,2.352-2.888,4.816-4.128,7.352
		c-0.112,0.232-0.224,0.464-0.336,0.696c-1.008,2.128-1.904,4.312-2.712,6.544c-0.448,1.24-0.808,2.512-1.192,3.784
		c-0.288,0.976-0.6,1.936-0.856,2.928c-0.4,1.576-0.728,3.184-1.024,4.8c-0.128,0.68-0.256,1.36-0.36,2.048
		c-0.272,1.8-0.488,3.624-0.624,5.472c-0.016,0.208-0.056,0.408-0.072,0.616h0.032L112,112L77.52,48.784z"/>
</g>
<path style="fill:#06AED5;" d="M112,40c-2.864,0-5.672,0.208-8.44,0.536c-0.84,0.096-1.664,0.256-2.496,0.384
	c-1.96,0.296-3.888,0.664-5.784,1.112c-0.88,0.208-1.744,0.432-2.608,0.672c-1.944,0.544-3.856,1.176-5.728,1.872
	c-0.672,0.248-1.352,0.472-2.016,0.736c-2.536,1.032-5.016,2.168-7.392,3.472l0,0L112,112l18.928,69.4l0,0
	c1.872-0.512,3.72-1.096,5.528-1.752c0.072-0.024,0.152-0.056,0.224-0.08c8.904-3.248,16.976-8.224,23.848-14.488
	c0.304-0.28,0.616-0.552,0.92-0.84c1.08-1.016,2.112-2.072,3.128-3.16c0.44-0.472,0.872-0.952,1.304-1.432
	c0.904-1.024,1.8-2.064,2.648-3.136c0.48-0.608,0.936-1.248,1.4-1.872c0.76-1.032,1.528-2.056,2.232-3.128
	c0.56-0.856,1.072-1.752,1.6-2.632c0.896-1.496,1.736-3.008,2.528-4.568c0.608-1.2,1.216-2.4,1.752-3.64
	c0.36-0.824,0.664-1.672,0.992-2.512c0.472-1.208,0.928-2.416,1.336-3.648c0.28-0.856,0.536-1.728,0.784-2.6
	c0.376-1.288,0.704-2.592,1.008-3.912c0.192-0.84,0.384-1.68,0.544-2.536c0.28-1.464,0.488-2.952,0.68-4.44
	c0.096-0.736,0.208-1.464,0.28-2.208c0.2-2.248,0.336-4.512,0.336-6.816C184,72.232,151.768,40,112,40z"/>
<g>
	<path style="fill:#242A40;" d="M112,192c7.232,0,14.208-1.048,20.872-2.856c0.056-0.016,0.104-0.008,0.16-0.024
		c0.112-0.032,0.208-0.072,0.32-0.104c1.824-0.504,3.616-1.08,5.392-1.712c0.464-0.168,0.928-0.336,1.384-0.504
		c1.672-0.632,3.328-1.304,4.944-2.04c0.504-0.232,1-0.48,1.504-0.728c1.584-0.76,3.152-1.536,4.672-2.4
		c0.32-0.184,0.624-0.392,0.944-0.576c3.352-1.96,6.56-4.128,9.576-6.536c0.112-0.088,0.232-0.168,0.344-0.256
		c1.176-0.944,2.288-1.96,3.408-2.976c0.624-0.56,1.256-1.112,1.864-1.688c1.04-1,2.032-2.04,3.016-3.096
		c0.6-0.648,1.2-1.288,1.776-1.952c0.952-1.088,1.88-2.2,2.776-3.344c0.52-0.664,1.008-1.336,1.504-2.016
		c0.888-1.208,1.768-2.424,2.592-3.68c0.36-0.552,0.688-1.136,1.032-1.696c2.688-4.352,4.952-8.976,6.776-13.824
		c0.352-0.944,0.72-1.888,1.04-2.848c0.4-1.192,0.744-2.408,1.088-3.624c0.328-1.176,0.64-2.352,0.912-3.544
		c0.256-1.112,0.496-2.216,0.712-3.344c0.272-1.464,0.488-2.944,0.68-4.432c0.12-0.92,0.264-1.824,0.344-2.752
		c0.224-2.456,0.368-4.936,0.368-7.448c0-44.112-35.888-80-80-80c-3.144,0-6.224,0.232-9.272,0.584
		c-0.832,0.096-1.648,0.256-2.472,0.376c-2.264,0.336-4.504,0.752-6.704,1.272c-0.928,0.216-1.84,0.456-2.76,0.712
		c-2.128,0.584-4.216,1.264-6.272,2.024c-0.864,0.32-1.744,0.608-2.6,0.952c-2.704,1.104-5.352,2.312-7.896,3.688
		c-0.112,0.064-0.232,0.104-0.344,0.16c-0.008,0-0.008,0.008-0.008,0.008c-0.456,0.248-0.856,0.568-1.304,0.824
		c-2.08,1.192-4.104,2.456-6.064,3.824c-1.104,0.768-2.152,1.584-3.208,2.4c-1.256,0.976-2.488,1.992-3.688,3.04
		c-1.128,0.992-2.248,1.976-3.32,3.016c-1.064,1.04-2.064,2.152-3.064,3.256c-1.576,1.728-3.08,3.504-4.496,5.36
		c-1.096,1.432-2.192,2.872-3.192,4.376c-0.696,1.056-1.32,2.152-1.968,3.24c-0.968,1.624-1.888,3.272-2.744,4.96
		c-0.456,0.912-0.912,1.824-1.336,2.76c-1.088,2.376-2.056,4.8-2.912,7.288c-0.104,0.304-0.232,0.6-0.336,0.904
		c-2.048,6.208-3.312,12.752-3.768,19.52c0,0.048-0.016,0.096-0.016,0.144c0,0.024,0.008,0.04,0.008,0.064
		C32.152,108.496,32,110.224,32,112C32,156.112,67.888,192,112,192z M52.728,87.96c0.464-1.168,1.016-2.288,1.552-3.416
		c0.384-0.808,0.752-1.64,1.168-2.432c0.384-0.728,0.808-1.416,1.216-2.128c0.664-1.136,1.32-2.28,2.048-3.376
		c0.28-0.416,0.584-0.816,0.872-1.232c0.912-1.304,1.856-2.592,2.856-3.824c0.216-0.264,0.448-0.512,0.664-0.776
		c1.104-1.304,2.248-2.576,3.448-3.792c0.232-0.232,0.48-0.456,0.712-0.688c1.2-1.176,2.44-2.312,3.728-3.384
		c0.344-0.288,0.712-0.56,1.064-0.848c0.824-0.664,1.688-1.28,2.544-1.904l7.232,13.248L98,103.04l-48.76-3.256
		c0.712-3.736,1.784-7.352,3.12-10.84C52.488,88.624,52.592,88.288,52.728,87.96z M48.192,115.76l57.592,3.84l15.192,55.696
		c-2.944,0.416-5.92,0.704-8.976,0.704C77.984,176,50.152,149.296,48.192,115.76z M176,112c0,2.936-0.264,5.824-0.656,8.672
		c-0.088,0.632-0.184,1.264-0.288,1.888c-0.976,5.768-2.704,11.312-5.136,16.496c-0.16,0.344-0.328,0.688-0.496,1.024
		c-2.584,5.256-5.872,10.136-9.768,14.488c-0.232,0.256-0.456,0.512-0.688,0.76c-4.008,4.336-8.608,8.136-13.72,11.248
		c-0.216,0.136-0.432,0.264-0.656,0.4c-2.608,1.552-5.328,2.944-8.176,4.12l-16.688-61.2c-0.168-0.6-0.4-1.176-0.696-1.728
		L88.656,52.472c0.768-0.304,1.544-0.584,2.328-0.856c0.896-0.312,1.792-0.648,2.704-0.92c1-0.296,2.024-0.536,3.04-0.784
		c0.984-0.24,1.968-0.512,2.96-0.704c1.12-0.216,2.264-0.36,3.4-0.52c0.896-0.128,1.792-0.296,2.696-0.384
		C107.824,48.12,109.896,48,112,48C147.288,48,176,76.712,176,112z"/>
	<path style="fill:#242A40;" d="M440,0H40C17.944,0,0,17.944,0,40v288v16c0,22.056,17.944,40,40,40h176v32h-64
		c-22.056,0-40,17.944-40,40v16c0,4.416,3.584,8,8,8h240c4.416,0,8-3.584,8-8v-16c0-22.056-17.944-40-40-40h-64v-32h176
		c22.056,0,40-17.944,40-40v-16V40C480,17.944,462.056,0,440,0z M40,16h400c13.232,0,24,10.768,24,24v280H16V40
		C16,26.768,26.768,16,40,16z M352,456v8H128v-8c0-13.232,10.768-24,24-24h72h32h72C341.232,432,352,442.768,352,456z M248,416h-16
		v-32h16V416z M464,344c0,13.232-10.768,24-24,24H256h-32H40c-13.232,0-24-10.768-24-24v-8h448V344z"/>
	<path style="fill:#242A40;" d="M216,304h232v-16H224V32h-16v264C208,300.416,211.584,304,216,304z"/>
	<path style="fill:#242A40;" d="M40,304h144c4.416,0,8-3.584,8-8v-80c0-4.416-3.584-8-8-8H40c-4.416,0-8,3.584-8,8v80
		C32,300.416,35.584,304,40,304z M48,224h128v64H48V224z"/>
	<path style="fill:#242A40;" d="M274.192,221.504l24.152,24.152c2.816,2.816,7.272,3.136,10.456,0.744l32-24
		c1.376-1.032,2.384-2.488,2.872-4.144l30.6-104.04l17.856,95.256c0.544,2.92,2.664,5.296,5.504,6.168
		c2.832,0.856,5.92,0.112,8.016-1.992l40-40l-11.312-11.312l-29.28,29.272l-21.2-113.088c-0.68-3.64-3.768-6.336-7.464-6.512
		c-3.72-0.168-7.032,2.176-8.08,5.728l-39.248,133.456l-24.328,18.24l-27.096-27.096c-1.824-1.824-4.416-2.64-6.936-2.24
		c-2.536,0.416-4.72,2.016-5.872,4.32l-32,64l14.312,7.16L274.192,221.504z"/>
</g>
<g>
</g>
<g>
</g>
<g>
</g>
<g>
</g>
<g>
</g>
<g>
</g>
<g>
</g>
<g>
</g>
<g>
</g>
<g>
</g>
<g>
</g>
<g>
</g>
<g>
</g>
<g>
</g>
<g>
</g>
</svg>
