<svg xmlns="http://www.w3.org/2000/svg" xmlns:xlink="http://www.w3.org/1999/xlink" width="552" height="486.71" viewBox="0 0 552 486.71"><defs><style>.cls-1{opacity:0.4;}.cls-2{fill:#95a0b0;}.cls-3{opacity:0.3;}.cls-4{fill:#87e2f2;}.cls-5{opacity:0.9;}.cls-6{fill:url(#Unbenannter_Verlauf_282);}.cls-7{fill:#f765a6;}.cls-8{fill:#fcd02c;}.cls-9{fill:#3adebe;}.cls-10{opacity:0.2;}.cls-11{fill:#0566a9;}.cls-12{fill:url(#Unbenannter_Verlauf_134);}.cls-13{fill:#ffd356;}.cls-14{fill:#d8a830;}.cls-15{fill:#b28624;}.cls-16,.cls-28{fill:#fff;}.cls-17,.cls-29{fill:none;stroke:#fff;}.cls-17,.cls-19,.cls-29{stroke-miterlimit:10;}.cls-17{stroke-width:0.3px;}.cls-18,.cls-19,.cls-28{opacity:0.8;}.cls-19,.cls-27{fill:#fdfeff;}.cls-19{stroke:#718095;stroke-linecap:round;stroke-width:0.66px;}.cls-20{fill:url(#Unbenannter_Verlauf_438);}.cls-21{fill:#718095;}.cls-22{fill:#f6f7f8;}.cls-23{fill:url(#Unbenannter_Verlauf_214);}.cls-24{fill:url(#Unbenannter_Verlauf_200);}.cls-25{fill:url(#Verlauf_Visual_Icontiefe_2);}.cls-26{fill:url(#Neues_Verlaufsfeld_24);}.cls-27{opacity:0.7;}.cls-29{stroke-width:0.54px;}</style><linearGradient id="Unbenannter_Verlauf_282" x1="318.53" y1="-62.18" x2="318.53" y2="512.56" gradientUnits="userSpaceOnUse"><stop offset="0" stop-color="#e7f9fc"/><stop offset="0.94" stop-color="#40d2eb"/></linearGradient><linearGradient id="Unbenannter_Verlauf_134" x1="-1.98" y1="844.28" x2="766.84" y2="-474.94" gradientUnits="userSpaceOnUse"><stop offset="0" stop-color="#001b41"/><stop offset="0" stop-color="#031d43"/><stop offset="0.04" stop-color="#304665"/><stop offset="0.09" stop-color="#596b83"/><stop offset="0.14" stop-color="#7f8c9f"/><stop offset="0.19" stop-color="#9faab8"/><stop offset="0.25" stop-color="#bbc2cc"/><stop offset="0.32" stop-color="#d1d6dc"/><stop offset="0.39" stop-color="#e2e5e9"/><stop offset="0.49" stop-color="#edeff2"/><stop offset="0.62" stop-color="#f4f5f7"/><stop offset="1" stop-color="#f6f7f8"/></linearGradient><linearGradient id="Unbenannter_Verlauf_438" x1="128.56" y1="581.89" x2="412.44" y2="70.91" gradientUnits="userSpaceOnUse"><stop offset="0.2" stop-color="#fff" stop-opacity="0.2"/><stop offset="0.26" stop-color="#fde0ed" stop-opacity="0.36"/><stop offset="0.34" stop-color="#fcbfda" stop-opacity="0.53"/><stop offset="0.43" stop-color="#faa3ca" stop-opacity="0.68"/><stop offset="0.52" stop-color="#f98dbd" stop-opacity="0.79"/><stop offset="0.62" stop-color="#f87bb3" stop-opacity="0.89"/><stop offset="0.72" stop-color="#f86fac" stop-opacity="0.95"/><stop offset="0.84" stop-color="#f767a7" stop-opacity="0.99"/><stop offset="1" stop-color="#f765a6"/></linearGradient><linearGradient id="Unbenannter_Verlauf_214" x1="111.87" y1="302.73" x2="87.76" y2="341.72" gradientUnits="userSpaceOnUse"><stop offset="0" stop-color="#dfe2e7"/><stop offset="0.4" stop-color="#dde0e6"/><stop offset="0.55" stop-color="#d6dae1"/><stop offset="0.65" stop-color="#cbd0d8"/><stop offset="0.73" stop-color="#bac1cb"/><stop offset="0.81" stop-color="#a4aebb"/><stop offset="0.83" stop-color="#99a4b3"/><stop offset="1" stop-color="#95a0b0"/></linearGradient><linearGradient id="Unbenannter_Verlauf_200" x1="250.55" y1="272.92" x2="-4.56" y2="327.52" gradientUnits="userSpaceOnUse"><stop offset="0.06" stop-color="#001b41"/><stop offset="0.58" stop-color="#4a00de"/></linearGradient><linearGradient id="Verlauf_Visual_Icontiefe_2" x1="115.87" y1="294.12" x2="205.72" y2="294.12" gradientUnits="userSpaceOnUse"><stop offset="0" stop-color="#e5f7fa" stop-opacity="0"/><stop offset="1" stop-color="#28cce8" stop-opacity="0.5"/></linearGradient><linearGradient id="Neues_Verlaufsfeld_24" x1="115.87" y1="281.53" x2="205.72" y2="281.53" gradientUnits="userSpaceOnUse"><stop offset="0" stop-color="#8c2de0"/><stop offset="0" stop-color="#ff9a9e"/><stop offset="1" stop-color="#fad0c4"/></linearGradient></defs><title>mobile-app</title><g id="Ebene_4" data-name="Ebene 4"><g id="Shape" class="cls-1"><path class="cls-2" d="M171.09,444.17c-.34.19-.34.51,0,.71l52.81,30.57a1.37,1.37,0,0,0,1.23,0l83.14-47.7c.34-.19.34-.51,0-.71l-52.86-30.56a1.37,1.37,0,0,0-1.23,0Z"/></g><g class="cls-3"><path class="cls-4" d="M179.23,10.33c0-2.37,1.67-3.33,3.71-2.14L483.19,182.68a8.29,8.29,0,0,1,3.72,6.46V411.6c0,2.37-1.67,3.33-3.71,2.14L183,239.25a8.27,8.27,0,0,1-3.72-6.46Z"/></g><g class="cls-5"><path class="cls-6" d="M166.07,18.75c0-2.36,1.67-3.32,3.71-2.13L467.27,190a8.31,8.31,0,0,1,3.71,6.46V418.94c0,2.36-1.68,3.32-3.72,2.13L169.79,247.68a8.32,8.32,0,0,1-3.72-6.46Z"/></g><ellipse id="Oval" class="cls-7" cx="182.24" cy="45.86" rx="3.48" ry="5.89" transform="translate(1.2 96.23) rotate(-29.67)"/><ellipse id="Oval-2" data-name="Oval" class="cls-8" cx="196.09" cy="53.94" rx="3.48" ry="5.89" transform="translate(-0.99 104.15) rotate(-29.67)"/><ellipse id="Oval-3" data-name="Oval" class="cls-9" cx="210.3" cy="62.12" rx="3.48" ry="5.89" transform="translate(-3.17 112.26) rotate(-29.67)"/><g class="cls-10"><path class="cls-11" d="M455.77,367.84c0,2.68-1.9,3.78-4.22,2.44l-.44-.26a9.35,9.35,0,0,1-4.22-7.3v-157c0-2.68,1.9-3.78,4.22-2.44l.44.26a9.37,9.37,0,0,1,4.22,7.31Z"/></g><polygon class="cls-12" points="252.66 393.08 304.67 423.26 224.78 469.37 172.81 439.18 252.66 393.08"/><polygon class="cls-13" points="252.66 369.4 304.67 399.57 224.78 445.69 172.81 415.5 252.66 369.4"/><polygon class="cls-14" points="172.81 415.49 172.81 439.18 224.78 469.37 224.78 445.69 172.81 415.49"/><polygon class="cls-15" points="304.67 399.57 304.67 423.26 224.78 469.37 224.78 445.69 304.67 399.57"/><path class="cls-16" d="M194.18,421.88a0,0,0,0,1,0-.08l17.19-10a.17.17,0,0,1,.14,0l31,17.83a0,0,0,0,1,0,.08l-17.4,10.08a.17.17,0,0,1-.14,0Z"/><path class="cls-17" d="M194.18,421.88a0,0,0,0,1,0-.08l17.19-10a.17.17,0,0,1,.14,0l31,17.83a0,0,0,0,1,0,.08l-17.4,10.08a.17.17,0,0,1-.14,0Z"/><g class="cls-18"><line x1="199.08" y1="422.5" x2="212.57" y2="414.71"/><polygon points="199.68 422.85 198.48 422.15 211.97 414.37 213.17 415.06 199.68 422.85"/></g><g class="cls-18"><line x1="202.3" y1="424.36" x2="215.79" y2="416.57"/><polygon points="203.39 424.99 201.21 423.73 214.7 415.94 216.88 417.2 203.39 424.99"/></g><g class="cls-18"><line x1="204.89" y1="425.85" x2="218.38" y2="418.07"/><polygon points="205.57 426.25 204.2 425.46 217.69 417.67 219.06 418.46 205.57 426.25"/></g><g class="cls-18"><line x1="207.12" y1="427.14" x2="220.61" y2="419.35"/><polygon points="207.34 427.27 206.89 427.01 220.38 419.22 220.84 419.49 207.34 427.27"/></g><g class="cls-18"><line x1="209.47" y1="428.5" x2="222.96" y2="420.71"/><polygon points="210.15 428.89 208.79 428.11 222.28 420.32 223.65 421.11 210.15 428.89"/></g><g class="cls-18"><line x1="212.11" y1="430.03" x2="225.61" y2="422.24"/><polygon points="212.71 430.37 211.51 429.68 225.01 421.89 226.21 422.58 212.71 430.37"/></g><g class="cls-18"><line x1="215.05" y1="431.72" x2="228.54" y2="423.93"/><polygon points="215.5 431.98 214.59 431.46 228.09 423.67 229 424.2 215.5 431.98"/></g><g class="cls-18"><line x1="218.16" y1="433.52" x2="231.65" y2="425.73"/><polygon points="219.07 434.04 217.25 432.99 230.74 425.2 232.56 426.26 219.07 434.04"/></g><g class="cls-18"><line x1="220.28" y1="434.74" x2="233.77" y2="426.95"/><polygon points="220.73 435 219.82 434.48 233.31 426.69 234.22 427.21 220.73 435"/></g><g class="cls-18"><line x1="222.79" y1="436.19" x2="236.29" y2="428.41"/><polygon points="223.7 436.72 221.88 435.67 235.38 427.88 237.2 428.93 223.7 436.72"/></g><line class="cls-19" x1="287.12" y1="395.04" x2="252.62" y2="375.11"/><line class="cls-19" x1="269.6" y1="390.69" x2="247.61" y2="377.99"/><line class="cls-19" x1="270.19" y1="397.11" x2="242.34" y2="381.02"/><polygon class="cls-20" points="189.77 277.05 158.01 436.72 226.94 476.96 327.09 419.22 207.19 267.94 189.77 277.05"/><g id="Smartphone"><path class="cls-21" d="M265.83,277.48v4.92a1.74,1.74,0,0,1-.88,1.52L128.4,362.84a1.74,1.74,0,0,1-1.74,0L49.23,318a1.75,1.75,0,0,1-.87-1.52l.16-4.9"/><path class="cls-22" d="M265,279.24,128.57,358.07a1.77,1.77,0,0,1-1.74,0l-77.5-44.67a1.75,1.75,0,0,1,0-3l135.83-78.61a1.76,1.76,0,0,1,1.75,0l78,44.46A1.75,1.75,0,0,1,265,279.24Z"/><ellipse class="cls-23" cx="96.78" cy="327.14" rx="7.95" ry="5.63"/><polygon class="cls-24" points="254.8 285.11 173.97 238.37 70 298.43 150.84 345.2 254.8 285.11"/><path class="cls-2" d="M228.87,265l-25.38-14.65c-.77-.45-.67-1.24.22-1.75h0a3.39,3.39,0,0,1,3-.13l25.38,14.66c.77.44.67,1.23-.22,1.74h0A3.36,3.36,0,0,1,228.87,265Z"/></g><g id="ScanBlue"><path class="cls-25" d="M159.77,319.89a1.61,1.61,0,0,1-1.42,0l-42.19-24.36a.43.43,0,0,1,0-.82l45.66-26.36a1.55,1.55,0,0,1,1.42,0l42.19,24.36a.43.43,0,0,1,0,.82Z"/></g><g id="ScanRed" class="cls-1"><path class="cls-26" d="M159.77,307.3a1.61,1.61,0,0,1-1.42,0l-42.19-24.36a.43.43,0,0,1,0-.82l45.66-26.36a1.55,1.55,0,0,1,1.42,0l42.19,24.35a.43.43,0,0,1,0,.82Z"/></g><path class="cls-16" d="M304.9,277.8c0,2-1.4,2.8-3.12,1.81l-83.73-48.34a7,7,0,0,1-3.13-5.42V92.4c0-2,1.41-2.79,3.13-1.8l83.73,48.34a6.94,6.94,0,0,1,3.12,5.42Z"/><g id="Shape-2" data-name="Shape" class="cls-1"><path class="cls-2" d="M220.17,223.36c-.34.2-.34.52,0,.71L273,254.64a1.34,1.34,0,0,0,1.23,0l21-12.08a.38.38,0,0,0,0-.71l-52.86-30.57a1.4,1.4,0,0,0-1.23,0Z"/></g><polygon class="cls-13" points="221.42 221.71 273.55 251.67 273.55 159.43 221.42 129.51 221.42 221.71"/><polygon class="cls-14" points="221.41 129.52 241.93 117.67 294.06 147.58 273.55 159.43 221.41 129.52"/><polygon class="cls-15" points="273.55 251.67 294.07 239.83 294.06 147.58 273.55 159.43 273.55 251.67"/><line class="cls-19" x1="260.85" y1="156.87" x2="226.35" y2="136.94"/><line class="cls-19" x1="248.33" y1="155.41" x2="226.34" y2="142.71"/><line class="cls-19" x1="254.18" y1="164.86" x2="226.33" y2="148.77"/><path class="cls-16" d="M238.75,226.7a.14.14,0,0,1-.07-.12l-.06-20s0-.06.07,0l30.95,17.79a.14.14,0,0,1,.07.12l0,20.14s0,.06-.07,0Z"/><path class="cls-17" d="M238.75,226.7a.14.14,0,0,1-.07-.12l-.06-20s0-.06.07,0l30.95,17.79a.14.14,0,0,1,.07.12l0,20.14s0,.06-.07,0Z"/><g class="cls-18"><line x1="241.74" y1="226.22" x2="241.74" y2="210.65"/><polygon points="242.34 226.57 241.14 225.88 241.14 210.3 242.34 210.99 242.34 226.57"/></g><g class="cls-18"><line x1="244.96" y1="228.08" x2="244.96" y2="212.51"/><polygon points="246.05 228.71 243.87 227.45 243.87 211.88 246.06 213.14 246.05 228.71"/></g><g class="cls-18"><line x1="247.55" y1="229.57" x2="247.55" y2="214"/><polygon points="248.23 229.97 246.86 229.18 246.87 213.6 248.23 214.39 248.23 229.97"/></g><g class="cls-18"><line x1="249.78" y1="230.86" x2="249.78" y2="215.29"/><polygon points="250 230.99 249.55 230.73 249.55 215.16 250.01 215.42 250 230.99"/></g><g class="cls-18"><line x1="252.13" y1="232.22" x2="252.13" y2="216.65"/><polygon points="252.81 232.62 251.45 231.83 251.45 216.25 252.82 217.04 252.81 232.62"/></g><g class="cls-18"><line x1="254.77" y1="233.75" x2="254.78" y2="218.17"/><polygon points="255.37 234.09 254.17 233.4 254.18 217.83 255.38 218.52 255.37 234.09"/></g><g class="cls-18"><line x1="257.71" y1="235.44" x2="257.71" y2="219.87"/><polygon points="258.17 235.71 257.25 235.18 257.26 219.6 258.17 220.13 258.17 235.71"/></g><g class="cls-18"><line x1="260.82" y1="237.24" x2="260.82" y2="221.66"/><polygon points="261.73 237.76 259.91 236.71 259.91 221.14 261.73 222.19 261.73 237.76"/></g><g class="cls-18"><line x1="262.94" y1="238.46" x2="262.94" y2="222.88"/><polygon points="263.39 238.72 262.48 238.2 262.48 222.62 263.39 223.15 263.39 238.72"/></g><g class="cls-18"><line x1="265.45" y1="239.91" x2="265.46" y2="224.34"/><polygon points="266.36 240.44 264.54 239.39 264.55 223.81 266.37 224.86 266.36 240.44"/></g><polygon class="cls-27" points="379.21 196.85 320.55 162.98 320.53 149.4 379.22 183.31 379.21 196.85"/><polygon class="cls-27" points="402.85 220.74 320.43 173.15 320.41 171.37 402.85 218.99 402.85 220.74"/><g class="cls-3"><path class="cls-16" d="M374,274.37c0,.94-.66,1.33-1.48.86l-44.85-25.9a3.29,3.29,0,0,1-1.49-2.57V227.83c0-.94.67-1.33,1.48-.86l44.86,25.9a3.31,3.31,0,0,1,1.48,2.57Z"/></g><polygon class="cls-28" points="337.62 221.91 327.52 216.08 327.52 214.71 337.62 220.54 337.62 221.91"/><polygon class="cls-28" points="393.47 254.16 340.04 223.31 340.04 221.94 393.47 252.79 393.47 254.16"/><polygon class="cls-28" points="337.62 267.21 327.52 261.39 327.52 260.02 337.62 265.85 337.62 267.21"/><polygon class="cls-28" points="377.14 290.04 340.04 268.61 340.04 267.24 377.14 288.67 377.14 290.04"/><polygon class="cls-28" points="337.62 278.22 327.52 272.4 327.52 271.03 337.62 276.86 337.62 278.22"/><polygon class="cls-28" points="372.26 303.73 327.52 277.9 327.52 276.53 372.26 302.37 372.26 303.73"/><polygon class="cls-28" points="362.57 292.63 340.04 279.62 340.04 278.25 362.57 291.27 362.57 292.63"/><polygon class="cls-28" points="350.67 280.25 327.52 266.89 327.52 265.52 350.67 278.89 350.67 280.25"/><polygon class="cls-28" points="377.14 295.54 353.08 281.65 353.08 280.28 377.14 294.17 377.14 295.54"/><path class="cls-16" d="M335.37,213l-3.76-2.17v-8.39c0-1,0-1.94.05-2.77a3.39,3.39,0,0,1-.86.52l-1.56.59-1.92-3.84,4.71-1.71,3.34,1.92Z"/><path class="cls-16" d="M348.32,220.46l-9.95-5.75v-2.82l3.35-2a19.17,19.17,0,0,0,1.87-1.28,2.37,2.37,0,0,0,.62-.74,2,2,0,0,0,.17-.85,2.16,2.16,0,0,0-.35-1.18,2.69,2.69,0,0,0-1-.92,2.26,2.26,0,0,0-1.31-.32,4.9,4.9,0,0,0-1.5.39l-2-3.93a5.42,5.42,0,0,1,1.79-.53,4.24,4.24,0,0,1,1.57.19,8.47,8.47,0,0,1,1.91.85,10,10,0,0,1,2.38,1.91,8.74,8.74,0,0,1,1.62,2.49,6.4,6.4,0,0,1,.58,2.58,5.85,5.85,0,0,1-.2,1.61,3.38,3.38,0,0,1-.62,1.19,4.54,4.54,0,0,1-1.13,1,29.8,29.8,0,0,1-3,1.49v.11l5.19,3Z"/><path class="cls-16" d="M349.86,219.55c0-.67.17-1.08.52-1.25s.83-.05,1.48.32a3.85,3.85,0,0,1,1.43,1.37,3.48,3.48,0,0,1,.5,1.82q0,1-.51,1.23a1.55,1.55,0,0,1-1.42-.27,4.21,4.21,0,0,1-1.46-1.38A3.38,3.38,0,0,1,349.86,219.55Z"/><path class="cls-16" d="M365.25,221.64q0,4.63-1.74,5.72T358,226.24A22.38,22.38,0,0,1,356,225v-3.39a14.18,14.18,0,0,0,1.62,1.11c1.32.76,2.34,1,3.06.82s1.12-1,1.18-2.32l-.11-.07a1.72,1.72,0,0,1-.73.71,1.4,1.4,0,0,1-.87,0,4.86,4.86,0,0,1-1.29-.56,7,7,0,0,1-2.78-3,9.45,9.45,0,0,1-1-4.38c0-1.75.43-2.88,1.3-3.38s2.06-.31,3.56.57a9.78,9.78,0,0,1,3.9,4.17A13.74,13.74,0,0,1,365.25,221.64Zm-5.17-7q-.61-.36-1-.06c-.26.19-.38.66-.38,1.41a4,4,0,0,0,.32,1.61,2.4,2.4,0,0,0,1,1.1,1,1,0,0,0,1.06.11,1,1,0,0,0,.45-1,4.63,4.63,0,0,0-.42-1.9A2.77,2.77,0,0,0,360.08,214.66Z"/><path class="cls-16" d="M376.51,228.14q0,4.65-1.74,5.73c-1.15.71-3,.34-5.55-1.13a21.3,21.3,0,0,1-1.92-1.22v-3.39a13,13,0,0,0,1.62,1.11c1.32.76,2.35,1,3.07.82s1.11-1,1.17-2.32l-.11-.06a1.83,1.83,0,0,1-.72.71,1.52,1.52,0,0,1-.88,0,4.74,4.74,0,0,1-1.28-.55,7.15,7.15,0,0,1-2.79-3,9.41,9.41,0,0,1-1-4.37c0-1.76.44-2.89,1.3-3.38s2.06-.31,3.57.56a9.84,9.84,0,0,1,3.89,4.18A13.7,13.7,0,0,1,376.51,228.14Zm-5.17-7a.86.86,0,0,0-1-.06c-.25.19-.38.67-.38,1.42a3.78,3.78,0,0,0,.33,1.6,2.4,2.4,0,0,0,1,1.11,1,1,0,0,0,1.06.1,1,1,0,0,0,.45-1,4.71,4.71,0,0,0-.41-1.9A2.71,2.71,0,0,0,371.34,221.16Z"/><polyline class="cls-29" points="332.36 239.66 333.76 242.82 337.19 242.46 338.6 245.62 342.03 245.25 343.44 248.41 346.88 248.05 348.28 251.21 351.71 250.84 353.12 254 356.56 253.64 357.96 256.8 361.4 256.44 362.82 259.6 366.26 259.24"/></g></svg>