<svg xmlns="http://www.w3.org/2000/svg" xmlns:xlink="http://www.w3.org/1999/xlink" width="552" height="486.71" viewBox="0 0 552 486.71"><defs><style>.cls-1,.cls-22,.cls-33,.cls-37{fill:none;}.cls-2{opacity:0.4;}.cls-3{fill:#95a0b0;}.cls-4{fill:#11c7e6;}.cls-5{fill:#f6f7f8;}.cls-6{fill:url(#Neues_Verlaufsfeld_15);}.cls-7{fill:url(#Unbenannter_Verlauf_2);}.cls-8{fill:#f965a8;}.cls-9{fill:#fed22c;}.cls-10{fill:#3ae0c0;}.cls-11{fill:#dfe2e7;}.cls-12{opacity:0.2;}.cls-13{fill:url(#Neues_Verlaufsfeld_2);}.cls-14{opacity:0.3;}.cls-15{fill:url(#Neues_Verlaufsfeld_2-2);}.cls-16,.cls-22{opacity:0.8;}.cls-17{fill:#fff;}.cls-18{fill:url(#Neues_Verlaufsfeld_2-3);}.cls-19{fill:url(#Neues_Verlaufsfeld_2-4);}.cls-20{fill:url(#Neues_Verlaufsfeld_2-5);}.cls-21{fill:url(#Neues_Verlaufsfeld_2-6);}.cls-22{stroke:#fff;stroke-width:2px;}.cls-22,.cls-33,.cls-37{stroke-miterlimit:10;}.cls-23{fill:url(#Unbenannter_Verlauf_4);}.cls-24{fill:url(#Unbenannter_Verlauf_4-2);}.cls-25{fill:#0b3476;}.cls-26{clip-path:url(#clip-path);}.cls-27{fill:url(#Unbenannter_Verlauf_4-3);}.cls-28{fill:#253b80;}.cls-29{fill:#179bd7;}.cls-30{fill:#ff5f00;}.cls-31{fill:#eb001b;}.cls-32{fill:#f79e1b;}.cls-33{stroke:#dfe2e7;}.cls-34{fill:#fae1bd;}.cls-35{clip-path:url(#clip-path-2);}.cls-36{fill:#edd0a9;}.cls-37{stroke:#d6b48e;stroke-linecap:round;stroke-width:0.38px;}.cls-38{fill:#f9f3f2;}.cls-39{fill:#001b41;}</style><linearGradient id="Neues_Verlaufsfeld_15" x1="276.42" y1="474.43" x2="298.66" y2="208.6" gradientUnits="userSpaceOnUse"><stop offset="0" stop-color="#95a0b0"/><stop offset="1" stop-color="#fff"/></linearGradient><linearGradient id="Unbenannter_Verlauf_2" x1="556.77" y1="618.26" x2="-45.31" y2="-264.89" gradientUnits="userSpaceOnUse"><stop offset="0.46" stop-color="#001b41"/><stop offset="0.82" stop-color="#4a00e0"/></linearGradient><linearGradient id="Neues_Verlaufsfeld_2" x1="369.18" y1="157.68" x2="440.62" y2="283.47" gradientTransform="matrix(0.5, -0.29, 0.87, 1.5, -101.17, -49.05)" gradientUnits="userSpaceOnUse"><stop offset="0.02" stop-color="#fdfeff"/><stop offset="1" stop-color="#cae2ff"/></linearGradient><linearGradient id="Neues_Verlaufsfeld_2-2" x1="341.22" y1="233.62" x2="377.13" y2="296.86" xlink:href="#Neues_Verlaufsfeld_2"/><linearGradient id="Neues_Verlaufsfeld_2-3" x1="233.96" y1="114.56" x2="323.27" y2="271.82" xlink:href="#Neues_Verlaufsfeld_2"/><linearGradient id="Neues_Verlaufsfeld_2-4" x1="209.63" y1="193.55" x2="229.48" y2="228.5" xlink:href="#Neues_Verlaufsfeld_2"/><linearGradient id="Neues_Verlaufsfeld_2-5" x1="232.47" y1="206.9" x2="252.32" y2="241.84" xlink:href="#Neues_Verlaufsfeld_2"/><linearGradient id="Neues_Verlaufsfeld_2-6" x1="348.27" y1="247.71" x2="368.1" y2="282.63" xlink:href="#Neues_Verlaufsfeld_2"/><linearGradient id="Unbenannter_Verlauf_4" x1="345.27" y1="262.84" x2="450.96" y2="262.84" gradientTransform="matrix(0.5, -0.29, 0.87, 1.5, -43.05, -15.43)" gradientUnits="userSpaceOnUse"><stop offset="0" stop-color="#e7f9fc" stop-opacity="0"/><stop offset="0" stop-color="#e4f8fc" stop-opacity="0.01"/><stop offset="0.09" stop-color="#abebf6" stop-opacity="0.16"/><stop offset="0.17" stop-color="#7be0f1" stop-opacity="0.28"/><stop offset="0.27" stop-color="#56d7ed" stop-opacity="0.38"/><stop offset="0.37" stop-color="#3cd1ea" stop-opacity="0.45"/><stop offset="0.48" stop-color="#2dcde9" stop-opacity="0.49"/><stop offset="0.64" stop-color="#28cce8" stop-opacity="0.5"/></linearGradient><linearGradient id="Unbenannter_Verlauf_4-2" x1="297.01" y1="291.06" x2="402.69" y2="291.06" xlink:href="#Unbenannter_Verlauf_4"/><clipPath id="clip-path"><path class="cls-1" d="M379.33,261.76c0,2.69,2.08,5.42,3.68,7.24s2.19,2.77,2.18,3.59c0,1.25-1.31,1.06-2.52.39a16.06,16.06,0,0,1-4.32-3.69l-.76,3.68a21.8,21.8,0,0,0,4.68,3.7c4.42,2.55,7.31,1.7,7.32-2.2,0-4.94-5.93-8.66-5.89-10.85,0-.66.57-1.06,1.78-.54a12.85,12.85,0,0,1,4.15,3.24l.74-3.56a18.78,18.78,0,0,0-3.94-3.1c-4.16-2.41-7.08-1.54-7.1,2.1m18.15,4.62c-.81-.47-1.49-.32-1.79.34l-6.31,13.76,4.41,2.55.88-2.3,5.4,3.12.51,3.1,3.89,2.24-3.4-20.74-3.59-2.07m.62,5.43,1.27,7.78-3.49-2,2.22-5.77M374,252.8l-3.48,16.78L374.7,272l3.48-16.77L374,252.8m-6.22-3.59-4.38,10.25-1.78-11.89a4.32,4.32,0,0,0-1.94-3l-7.16-4.14-.1.49a35.59,35.59,0,0,1,4.16,4,4.05,4.05,0,0,1,1,2.22L360.9,264l4.45,2.57,6.82-14.85-4.42-2.55"/></clipPath><linearGradient id="Unbenannter_Verlauf_4-3" x1="392.94" y1="235.67" x2="498.63" y2="235.67" xlink:href="#Unbenannter_Verlauf_4"/><clipPath id="clip-path-2"><path class="cls-1" d="M136.61,385.31,191,339.12s3.93-4.17,6.13-5.29,7.1-3.26,11.66-3.46l36.87-1.49a33.64,33.64,0,0,0,14.63-2.52c7.77-3.21,36.87-18.32,36.87-18.32s7.9-5.31,11-6.41S316,297.47,319,297c0,0,3.62-1.6,3.6-4.47,0-4.29-.88-10.18-15.41-9.2,0,0-6.88.06-15.71,5.71-1.58,1-13.84,6.72-16,7.51-5.12,1.87-8.87.13-7-3.71,0,0,5.4-11.15,28.12-17.91a371.92,371.92,0,0,0,37-18s16.83-8.64,19.93-18c0,0,3.17-9.26-5.51-9-2.73.14-12.51,4.77-13.35,5.14-21.57,9.48-26,12-48.19,19.88-1.86.66-11.8,2-12.66,2.57s-4.91.69-2.5-1,8.06-3.92,10.12-4.73,6.37-2.62,7.21-2.73l9.09,1.82,23.75-9.95s-21-10.09-22.93-10.78-7-2.74-11.32-2.15c-1.64.23-1.19-1-1.73-2.34s-5.32-5.35-7.18-6.75c-2.58-1.94-9.6-2.31-13.34-.48a6.78,6.78,0,0,0-4.72-4.69,28.32,28.32,0,0,0-16.65,0c-2.34.7-12.12,4.06-15.46,4.6s-9.76,2.48-12.65,5.9c0,0-40.35,29.76-49,39.94-1.48,1.75-10.55,10.4-11.17,11.79s-4,3.55-6.72,5.78c-4.39,3.64-10.32,7-12.45,6.8s-29.84,24.2-29.84,24.2C94.06,320.64,105.38,404.48,136.61,385.31Z"/></clipPath></defs><title>flexible-payment</title><g id="Ebene_4" data-name="Ebene 4"><g id="Shape" class="cls-2"><path class="cls-3" d="M215.05,429c-.34.19-.34.51,0,.71l86.47,50a1.34,1.34,0,0,0,1.23,0L361.2,446a.38.38,0,0,0,0-.71l-86.53-50a1.4,1.4,0,0,0-1.23,0Z"/></g><polygon class="cls-4" points="215.17 419 215.17 415.72 218.48 417.63 218.48 420.92 215.17 419"/><polygon class="cls-4" points="361.1 435.31 361.1 432.03 357.31 434.21 357.31 437.5 361.1 435.31"/><g id="Shape-2" data-name="Shape"><path class="cls-4" d="M215.05,418.66c-.34.19-.34.51,0,.71l86.47,50a1.34,1.34,0,0,0,1.23,0l58.45-33.71a.38.38,0,0,0,0-.71l-86.53-50a1.4,1.4,0,0,0-1.23,0Z"/></g><g id="Shape-3" data-name="Shape"><path class="cls-5" d="M215.05,415.37c-.34.2-.34.52,0,.71l86.47,50a1.4,1.4,0,0,0,1.23,0l58.45-33.72a.38.38,0,0,0,0-.71l-86.53-50a1.34,1.34,0,0,0-1.23,0Z"/></g><polygon class="cls-4" points="318.14 436.27 323.97 432.91 323.97 363.14 318.13 363.14 318.14 436.27"/><polygon class="cls-6" points="318.14 168.57 318.14 436.27 265.99 406.16 265.99 138.46 318.14 168.57"/><polygon class="cls-4" points="455.51 454.12 461.71 450.12 461.71 442.61 455.26 442.61 455.51 454.12"/><polygon class="cls-4" points="131.6 11.94 137.79 8.84 150.96 16.45 145.59 20.02 131.6 11.94"/><g id="Shape-4" data-name="Shape"><path class="cls-4" d="M137.13,261.76a2.74,2.74,0,0,0,1.23,2.13L461.5,450.55c.67.39,1.23.07,1.23-.71V196.92a2.75,2.75,0,0,0-1.23-2.13L138.36,8.22c-.68-.39-1.23-.07-1.23.71Z"/></g><g id="Shape-5" data-name="Shape"><path class="cls-7" d="M130.94,264.85a2.72,2.72,0,0,0,1.23,2.13L455.3,452.5c.68.39,1.23.06,1.23-.72V200a2.72,2.72,0,0,0-1.23-2.13L132.17,11.32c-.68-.39-1.23-.07-1.23.71Z"/></g><ellipse id="Oval" class="cls-8" cx="143.13" cy="32.74" rx="3.25" ry="5.49" transform="matrix(0.87, -0.5, 0.5, 0.87, 2.81, 75.95)"/><ellipse id="Oval-2" data-name="Oval" class="cls-9" cx="156.09" cy="40.31" rx="3.25" ry="5.49" transform="matrix(0.87, -0.5, 0.5, 0.87, 0.76, 83.45)"/><ellipse id="Oval-3" data-name="Oval" class="cls-10" cx="169.4" cy="47.97" rx="3.25" ry="5.49" transform="translate(-1.29 91.13) rotate(-30)"/><g id="Shape-6" data-name="Shape"><path class="cls-11" d="M130.94,265.88a2.7,2.7,0,0,0,1.23,2.13L455.3,454.68c.68.39,1.23.07,1.23-.71V428.2a2.72,2.72,0,0,0-1.23-2.13L132.17,239.51c-.68-.39-1.23-.07-1.23.71Z"/></g><polygon id="Shape-7" data-name="Shape" class="cls-11" points="130.94 263.18 456.53 451.26 456.53 422.65 130.94 234.67 130.94 263.18"/><g class="cls-12"><path class="cls-13" d="M260.86,174.15a1.38,1.38,0,0,1-.63-1.08L260,119.63c0-.39.28-.56.62-.36l62.65,35.84a1.37,1.37,0,0,1,.63,1.08v53.62c0,.4-.28.56-.63.36Z"/></g><g class="cls-14"><path class="cls-15" d="M292.65,245.51a1.39,1.39,0,0,1-.63-1.09l-.19-17.25c0-.39.28-.56.62-.36l30.95,17.7a1.4,1.4,0,0,1,.62,1.08v17.67c0,.39-.28.55-.62.35Z"/></g><g class="cls-16"><path class="cls-17" d="M314.2,161.11l-6.29-3.63c-1.18-.68-2.19-.34-2.47.82l-.48,2-29.74-17.17a.55.55,0,0,0-.67,0,.78.78,0,0,0-.16.74l3.9,20.87a1.92,1.92,0,0,0,.82,1.23l21.55,12.44-.71,3L280.26,170c-1.7-1-3.09-.19-3.09,1.78a6.87,6.87,0,0,0,3.09,5.36c1.71,1,3.1.18,3.1-1.79a5.55,5.55,0,0,0-.34-1.8l15,8.63a2.77,2.77,0,0,0-.34,1.41,6.85,6.85,0,0,0,3.09,5.36c1.71,1,3.1.18,3.1-1.78a6.93,6.93,0,0,0-2.16-4.65l.9-3.79h0l1.24-5.21,3.29-13.83c.09-.39.43-.5.82-.27l6.29,3.63c.47.27.85.05.85-.49A1.87,1.87,0,0,0,314.2,161.11Zm-34.42,3.27-3.49-18.67L304.55,162l-3.48,14.66Zm1.88,10c0,.89-.63,1.25-1.4.81a3.08,3.08,0,0,1-1.39-2.42c0-.89.62-1.25,1.39-.81A3.08,3.08,0,0,1,281.66,174.39Zm20.46,11.82c0,.89-.63,1.25-1.4.8a3.08,3.08,0,0,1-1.39-2.42c0-.89.62-1.25,1.39-.8A3.09,3.09,0,0,1,302.12,186.21Z"/></g><g class="cls-12"><path class="cls-18" d="M166.63,210.84a1.39,1.39,0,0,1-.63-1.09L165.29,65c0-.39.28-.56.62-.36l77.88,44.55a1.37,1.37,0,0,1,.63,1.08l.2,144.86c0,.4-.28.56-.62.36Z"/></g><g class="cls-12"><path class="cls-19" d="M182.45,202a.15.15,0,0,1-.07-.12l0-6c0-.05,0-.07.07-.05L200.08,206a.15.15,0,0,1,.07.12l0,6a0,0,0,0,1-.07,0Z"/></g><g class="cls-12"><path class="cls-20" d="M205.42,215.42a.14.14,0,0,1-.07-.12l0-6s0-.06.07,0l17.67,10.11a.14.14,0,0,1,.07.12v6c0,.05,0,.07-.07,0Z"/></g><g class="cls-12"><path class="cls-21" d="M298.66,243.2a.15.15,0,0,1-.07-.12l0-6c0-.05,0-.07.07,0l17.65,10.1a.15.15,0,0,1,.07.12v6s0,.06-.07,0Z"/></g><path class="cls-22" d="M225.38,140.88c-.28,0,.28-6.09.33-8.41a3.66,3.66,0,0,0-1.58-3.06,7.57,7.57,0,0,0-.75-.46l-22.87-13.21-23-13.29c-1.55-.89-2.16-.49-2.13,1.4.1,7.62.5,15.39,1.36,23.38a214.27,214.27,0,0,0,4.57,27,150.46,150.46,0,0,0,5.57,18.58,6.75,6.75,0,0,0,2.79,3.58q10.85,6.28,21.69,12.52c1.23.71,2.23.63,2.84-.34s1.34-2.12,1.93-3.27a67.74,67.74,0,0,0,5-13.15,4.9,4.9,0,0,1,.68.19c8.48,2.54,14-4,15.19-15.6C237.39,152.69,237.11,141.17,225.38,140.88Zm2.73,26.28a6.38,6.38,0,0,1-6,.81c.85-3.81,1.51-7.8,2-11.92.42-3.33.8-6.15,1.06-9.6.42-1.25,1.42-1.67,3.08-1.17a6,6,0,0,1,3.9,4.4,16,16,0,0,1,.77,4.85C233,160.39,231.49,164.73,228.11,167.16Z"/><polygon class="cls-23" points="350.58 267.66 350.54 221.91 416.66 260.08 416.67 305.94 350.58 267.66"/><polygon class="cls-24" points="350.88 323.92 350.85 278.17 416.97 316.35 416.97 362.21 350.88 323.92"/><polygon class="cls-11" points="347.72 326.33 347.69 280.58 413.81 318.76 413.81 364.62 347.72 326.33"/><polygon class="cls-25" points="347.42 270.07 347.38 224.32 413.5 262.5 413.5 308.36 347.42 270.07"/><g id="layer1"><g id="g10267"><g class="cls-26"><g id="g10269"><g id="g10275"><path id="path10283" class="cls-17" d="M346.94,239.17,398.25,247l11.67,43.34-51.31-7.81"/></g></g></g></g></g><polygon class="cls-27" points="350.88 213.13 350.84 167.39 416.96 205.56 416.96 251.42 350.88 213.13"/><polygon class="cls-11" points="347.71 215.54 347.68 169.8 413.8 207.97 413.8 253.83 347.71 215.54"/><path class="cls-28" d="M361.27,192.46,357.13,190c-.29-.17-.52-.07-.56.23l-1.48,11.39a.77.77,0,0,0,.35.66l2,1.19c.28.17.52.07.56-.23l.4-3.07c0-.3.27-.39.56-.22l1.31.78c2.73,1.64,4.28,1,4.64-1.76a5.7,5.7,0,0,0-.57-3.44A8,8,0,0,0,361.27,192.46Zm.55,4.81c-.19,1.6-1.33.92-2.43.26l-.63-.38.39-3c0-.18.17-.24.34-.14l.28.17a4.48,4.48,0,0,1,1.83,1.59A2.39,2.39,0,0,1,361.82,197.27Z"/><path class="cls-28" d="M373.74,204.35l-2-1.19c-.17-.1-.31,0-.33.14l-.08.59-.14-.32a5.91,5.91,0,0,0-2.36-2.37c-2.2-1.32-4-.5-4.36,2a6.86,6.86,0,0,0,.8,4,6.52,6.52,0,0,0,2.51,2.68c1.77,1.06,2.73.32,2.73.32l-.08.59a.78.78,0,0,0,.35.67l1.79,1.07c.28.17.52.07.56-.23l.94-7.27A.77.77,0,0,0,373.74,204.35ZM371,207.2c-.17,1.2-1.05,1.55-2.2.86a3.46,3.46,0,0,1-1.34-1.42,3,3,0,0,1-.34-1.81c.16-1.21,1.06-1.57,2.19-.9a3.6,3.6,0,0,1,1.33,1.43A3.13,3.13,0,0,1,371,207.2Z"/><path class="cls-28" d="M384.31,210.68l-2-1.19a.35.35,0,0,0-.47,0l-2.67,3.07-1.24-5.24a1.44,1.44,0,0,0-.56-.81l-2-1.17c-.24-.14-.4,0-.32.34l2.32,8.83-2,2.16c-.16.17,0,.64.29.8l2,1.2c.19.11.36.11.47,0l6.45-7.18C384.76,211.31,384.59,210.85,384.31,210.68Z"/><path class="cls-29" d="M390.84,210.17l-4.14-2.48c-.29-.17-.52-.08-.56.22l-1.48,11.39a.8.8,0,0,0,.35.67l2.13,1.27c.19.12.36,0,.39-.16l.42-3.22c0-.31.27-.4.56-.23l1.31.78c2.73,1.64,4.28,1,4.64-1.76a5.65,5.65,0,0,0-.58-3.44A7.9,7.9,0,0,0,390.84,210.17Zm.55,4.81c-.19,1.6-1.33.92-2.43.26l-.63-.37.39-3c0-.18.17-.24.34-.13l.28.17a4.46,4.46,0,0,1,1.83,1.58A2.39,2.39,0,0,1,391.39,215Z"/><path class="cls-29" d="M403.31,222.06l-2-1.19c-.17-.1-.31,0-.33.14l-.08.59-.14-.31a5.88,5.88,0,0,0-2.36-2.38c-2.2-1.31-4-.5-4.36,2a6.89,6.89,0,0,0,.8,4,6.62,6.62,0,0,0,2.51,2.67c1.77,1.06,2.73.32,2.73.32l-.08.59a.77.77,0,0,0,.35.67l1.79,1.07c.28.17.52.08.56-.22l1-7.28A.82.82,0,0,0,403.31,222.06Zm-2.7,2.85c-.17,1.21-1.06,1.55-2.2.86a3.55,3.55,0,0,1-1.35-1.42,3,3,0,0,1-.33-1.81c.15-1.2,1-1.57,2.18-.89a3.53,3.53,0,0,1,1.34,1.42A3.14,3.14,0,0,1,400.61,224.91Z"/><path class="cls-29" d="M405.58,219.33l-1.5,11.6a.78.78,0,0,0,.35.67l1.71,1c.28.17.52.07.56-.23L408.18,221a.77.77,0,0,0-.35-.66l-1.92-1.15C405.75,219.1,405.6,219.15,405.58,219.33Z"/><path d="M368.94,331.91c0-.64.36-1,.95-.62a2.06,2.06,0,0,1,.95,1.72c0,.66-.38.94-.95.61a2.05,2.05,0,0,1-.95-1.71m2.55,1.47v-1.82l-.69-.4v.45a2.42,2.42,0,0,0-1-1.11c-.89-.51-1.58-.11-1.58,1a3.46,3.46,0,0,0,1.58,2.82c.45.26.78.24,1,0v.44l.69.4Zm23.15,13.37c0-.64.36-1,1-.62a2.09,2.09,0,0,1,.95,1.72c0,.66-.39.94-.95.61a2,2,0,0,1-1-1.71m2.55,1.47v-3.28l-.68-.4v1.91a2.5,2.5,0,0,0-1-1.11c-.88-.51-1.58-.11-1.58,1a3.48,3.48,0,0,0,1.58,2.82c.45.26.78.24,1,0v.44l.68.4ZM380,337.09a1.72,1.72,0,0,1,.8,1.34l-1.64-.94c.08-.49.35-.68.84-.4m0-.7c-.93-.54-1.57-.13-1.57,1a3.37,3.37,0,0,0,1.61,2.84,1.48,1.48,0,0,0,1.29.24l-.33-.78a1.16,1.16,0,0,1-.92-.15,1.91,1.91,0,0,1-.94-1.43l2.34,1.35a2.91,2.91,0,0,0,0-.3,3.27,3.27,0,0,0-1.49-2.77m8.27,6.68c0-.64.36-.95,1-.61a2.06,2.06,0,0,1,.95,1.71c0,.67-.38.95-.95.62a2.07,2.07,0,0,1-1-1.72m2.55,1.48v-1.82l-.69-.4v.44a2.4,2.4,0,0,0-1-1.1c-.88-.51-1.58-.11-1.58,1a3.48,3.48,0,0,0,1.58,2.82c.45.26.78.24,1,0V346l.69.4Zm-6.42-3.71a3.47,3.47,0,0,0,1.68,2.88,1.29,1.29,0,0,0,1.13.22l-.33-.83a1.06,1.06,0,0,1-.82-.15,2,2,0,0,1-.95-1.71c0-.7.4-.92.95-.62a2.73,2.73,0,0,1,.82.81l.33-.45a3.09,3.09,0,0,0-1.13-1.09c-1-.59-1.68-.16-1.68.94m8.83,3.19c-.39-.23-.65-.16-.83.05v-.44l-.68-.39v3.64l.69.39v-2c0-.6.22-.8.67-.55a2.06,2.06,0,0,1,.43.34l.21-.62a2.25,2.25,0,0,0-.49-.38m-18.36-10.22a4.26,4.26,0,0,0-1.29-1.13c-.8-.46-1.31-.31-1.31.41a2.23,2.23,0,0,0,1.09,1.7l.32.24c.38.28.55.5.55.7s-.25.3-.71,0a3.25,3.25,0,0,1-1-1l-.33.43a4.19,4.19,0,0,0,1.37,1.26c.91.53,1.44.34,1.44-.36a2.28,2.28,0,0,0-1.1-1.72l-.33-.24c-.29-.22-.53-.42-.53-.67s.22-.29.6-.07a3.9,3.9,0,0,1,1,.87Zm8.84,4.72c-.4-.23-.66-.16-.83.05v-.44l-.68-.39v3.64l.68.39v-2c0-.6.23-.8.68-.54a2,2,0,0,1,.42.33l.21-.62a2.21,2.21,0,0,0-.48-.38m-5.85-3.29-1.12-.64v-1.11l-.69-.4v1.11l-.64-.37v.72l.64.37v1.66a2.07,2.07,0,0,0,1.09,2,1.36,1.36,0,0,0,.86.21l-.2-.79a1.1,1.1,0,0,1-.61-.14.92.92,0,0,1-.45-.87v-1.65l1.12.65ZM367.63,333v-2.28a2.57,2.57,0,0,0-1.24-2.17c-.41-.24-.82-.33-1.11,0a2.52,2.52,0,0,0-1-1.25c-.34-.19-.67-.27-.93,0v-.45l-.68-.39v3.63l.69.4v-2c0-.64.3-.8.77-.53a1.47,1.47,0,0,1,.69,1.36v2l.69.4v-2c0-.63.32-.79.77-.52a1.44,1.44,0,0,1,.69,1.35v2Z"/><path class="cls-30" d="M385.06,333.22l-10.38-6V305.68l10.38,6Z"/><path class="cls-31" d="M375.34,316.84c0-4.38,1.78-7.25,4.54-8.16a23.27,23.27,0,0,0-7.34-7.17c-6.55-3.78-11.86-.71-11.86,6.86s5.31,16.77,11.86,20.55c2.77,1.6,5.32,2,7.34,1.31a25.18,25.18,0,0,1-4.54-13.39"/><path class="cls-32" d="M399.07,330.53c0,7.57-5.32,10.64-11.87,6.85a23.12,23.12,0,0,1-7.34-7.16c2.77-.92,4.54-3.79,4.54-8.16a25.07,25.07,0,0,0-4.54-13.39c2-.67,4.57-.29,7.34,1.31,6.55,3.78,11.87,13,11.87,20.55"/><g class="cls-16"><path class="cls-33" d="M405.83,376c-4.59-2.65-2.39-6.47-7-9.12s-6.8,1.16-11.4-1.49-2.39-6.47-7-9.13-6.8,1.17-11.4-1.48-2.39-6.48-7-9.13-6.8,1.17-11.4-1.49"/></g><path class="cls-34" d="M136.61,385.31,191,339.12s3.93-4.17,6.13-5.29,7.1-3.26,11.66-3.46l36.87-1.49a33.64,33.64,0,0,0,14.63-2.52c7.77-3.21,36.87-18.32,36.87-18.32s7.9-5.31,11-6.41S316,297.47,319,297c0,0,3.62-1.6,3.6-4.47,0-4.29-.88-10.18-15.41-9.2,0,0-6.88.06-15.71,5.71-1.58,1-13.84,6.72-16,7.51-5.12,1.87-8.87.13-7-3.71,0,0,5.4-11.15,28.12-17.91a371.92,371.92,0,0,0,37-18s16.83-8.64,19.93-18c0,0,3.17-9.26-5.51-9-2.73.14-12.51,4.77-13.35,5.14-5.39,2.37-9.71,4.3-13.51,6l-.28.11c-1.51-.76-20.47-10.4-22.32-11.06s-7-2.74-11.32-2.15c-1.64.23-1.19-1-1.73-2.34s-5.32-5.35-7.18-6.75c-2.58-1.94-9.6-2.31-13.34-.48a6.78,6.78,0,0,0-4.72-4.69,28.32,28.32,0,0,0-16.65,0c-2.34.7-12.12,4.06-15.46,4.6s-9.76,2.48-12.65,5.9c0,0-40.35,29.76-49,39.94-1.48,1.75-10.55,10.4-11.17,11.79s-4,3.55-6.72,5.78c-4.39,3.64-10.32,7-12.45,6.8s-29.84,24.2-29.84,24.2C94.06,320.64,105.38,404.48,136.61,385.31ZM271.33,256.45c2.41-1.71,8.06-3.92,10.12-4.73s6.37-2.62,7.21-2.73c0,0,7.87,2.28,8.75,1.95-3.16,1.19-6.72,2.48-10.92,4-1.86.66-11.8,2-12.66,2.57S268.92,258.17,271.33,256.45Z"/><g class="cls-35"><path class="cls-36" d="M251.78,330.64s.3-5.76-7.33-5.8-34.26,3.51-37.52,3.19-8.83-1.44-12.66,1.2-11.73,7.86-14,8.77-68.79,57.2-68.79,57.2L127.26,404,158,378s31.76-31.9,38.49-33.48S231.24,335,231.24,335Z"/><path class="cls-36" d="M284.34,222.6s-14.78,6.46-15.86,7.47,4.81-.54,4.81-.54,13.61-2.53,15.3-2.08S284.34,222.6,284.34,222.6Z"/><path class="cls-36" d="M261.92,212.9s-18.07,7.87-19.23,9.5,1.17,1.15,2.28.62,20-4.66,20-4.66l.23-4.81Z"/></g><path class="cls-37" d="M266.59,257s-13.06-1.29-16,7.23"/><path class="cls-37" d="M252.21,239.13s-12.37-3-16.9,6.82"/><path class="cls-37" d="M237.11,224.83s-8.14-.21-13,5.68"/><path class="cls-37" d="M329.8,238.58s5,3,5,5.14"/><path class="cls-37" d="M291.33,229.3a4.09,4.09,0,0,1,1.05,3.54"/><path class="cls-37" d="M293.93,229.19s2.26,4.12,1.75,5.88"/><path class="cls-37" d="M311.08,247.46s3.17,1.53,3.69,2.62"/><path class="cls-37" d="M296.74,306.64s-4.78-4.9-5.71-5.32-3.47-.8-3.06,1.72,1.75,6.25,2.61,6.8"/><path class="cls-37" d="M290.34,303.25s2.22,5,3,5"/><path class="cls-37" d="M315.93,246.79s2.57,2.89,2.81,4.46c.28,1.82-.42,3.69-2.93,3.09s-6.75-1.7-7.64-4.39"/><path class="cls-38" d="M320.1,295.26s-1.19-6.67-3.64-7.8c-1.21-.56-5.81.91-8,2.39s-3.92,3.24-3.12,5.93c.44,1.48,1.9,4.51,5.36,3.48C312.09,298.83,319.11,297,320.1,295.26Z"/><path class="cls-38" d="M337,233.89s1.18,6.18,5.82,5.93a22.62,22.62,0,0,0,5.17-1c1.65-.53,3-2.51,3.62-3.75s-1.28-3.57-2.21-4.55-2.19-.52-4.12-.07A78.28,78.28,0,0,0,337,233.89Z"/><path class="cls-36" d="M320.89,241.14,314.64,238,292.47,250l4.22,1a1.36,1.36,0,0,0,.63-.07Z"/><path class="cls-39" d="M112.55,430.46c-16.42,18.12-8.48-1.39-23-8.23-14.17-6.68-24.08,5.19-41-19.48-3.72-5.43-25.47-27.33-21-31.47,12.49-11.67,91-72.92,91-72.92a2.89,2.89,0,0,1,3.82.31l50,54a3.12,3.12,0,0,1,.14,3.93S117.28,425.23,112.55,430.46Z"/></g></svg>