<svg height="512pt" viewBox="0 0 512 512" width="512pt" xmlns="http://www.w3.org/2000/svg"><path d="m84.558594 214.402344 14.882812-5.875 11.746094 29.765625-14.882812 5.875zm0 0"/><path d="m496 207.335938v35.128906l-240 123.871094-240-123.871094v-31.257813l240-189.679687 20.351562 16.089844 9.921876-12.554688-30.273438-23.917969-256 202.320313v307.871094h512v-304zm-480 53.136718 222.558594 114.863282-222.558594 114.871093zm24.945312 234.863282 215.054688-111 215.054688 111zm455.054688-5.128907-222.558594-114.871093 222.558594-114.863282zm0 0"/><path d="m187.367188 148.015625-81.855469 32.3125 29.367187 74.398437 29.769532-11.742187 26.398437 66.976563 44.648437-17.601563-26.398437-66.976563 7.4375-2.933593c42.125-17.199219 89.292969-17.320313 131.503906-.335938l17.402344 7.199219-74.160156-187.960938-7.816407 17.113282c-19.238281 41.230468-53.777343 73.351562-96.296874 89.550781zm-43.480469 85.96875-17.597657-44.648437 59.527344-23.496094 17.597656 44.648437zm71.082031 49.351563-14.878906 5.871093-20.5625-52.078125 14.886718-5.871094zm122.398438-82.046876c-39.035157-11.445312-80.703126-10.167968-118.96875 3.648438l-17.855469-45.25c37.382812-16.042969 68.691406-43.566406 89.394531-78.582031zm0 0"/><path d="m463.097656 93.9375c14.152344 35.496094 13.503906 75.179688-1.792968 110.199219l14.679687 6.398437c35.132813-81.074218-2.039063-175.289062-83.0625-210.535156l-6.402344 14.671875c35.089844 15.132813 62.664063 43.675781 76.578125 79.265625zm0 0"/><path d="m418.472656 111.542969c9.425782 23.660156 8.996094 50.109375-1.191406 73.449219l14.71875 6.34375c24.53125-56.75-1.5-122.648438-58.191406-147.3125l-6.402344 14.679687c23.398438 10.085937 41.785156 29.113281 51.066406 52.839844zm0 0"/><path d="m373.246094 165.878906 14.683594 6.402344c14.046874-32.4375-.824219-70.121094-33.234376-84.226562l-6.398437 14.679687c24.304687 10.566406 35.46875 38.816406 24.949219 63.144531zm0 0"/></svg>