<svg height="472pt" viewBox="-3 0 471 472" width="472pt" xmlns="http://www.w3.org/2000/svg"><path d="m440.5 288h-48l-16-48h-40l-8-32h-32l-8-40h-32l-8-64h-32l-8 64h-32l-8 40h-32l-8 32h-40l-16 48h-48l-24 32h464zm0 0" fill="#f4b12a"/><path d="m296.5 208h-128l8-40h112zm0 0" fill="#d38d1c"/><path d="m24.5 288h416l24 32h-464zm0 0" fill="#c6643e"/><path d="m.5 320h464v80h-464zm0 0" fill="#e9e9e9"/><path d="m.5 400h464v72h-464zm0 0" fill="#4c3d38"/><path d="m376.5 240h-288l-16 48h320zm0 0" fill="#d88445"/><path d="m224.5 0h16v104h-16zm0 0" fill="#f4b12a"/><path d="m176.5 144h16v24h-16zm0 0" fill="#d38d1c"/><path d="m136.5 184h16v24h-16zm0 0" fill="#f4b12a"/><g fill="#261d1d"><path d="m32.5 424h16v24h-16zm0 0"/><path d="m72.5 424h16v24h-16zm0 0"/><path d="m112.5 424h16v24h-16zm0 0"/><path d="m336.5 424h16v24h-16zm0 0"/><path d="m376.5 424h16v24h-16zm0 0"/><path d="m416.5 424h16v24h-16zm0 0"/></g><path d="m272.5 144h16v24h-16zm0 0" fill="#d38d1c"/><path d="m312.5 184h16v24h-16zm0 0" fill="#f4b12a"/><path d="m360.5 216h16v24h-16zm0 0" fill="#d88445"/><path d="m304.5 272v96h-144v-96l72-64zm0 0" fill="#d6d7d8"/><path d="m112.5 352c-8.800781 0-16 7.199219-16 16v8h32v-8c0-8.800781-7.199219-16-16-16zm0 0" fill="#999"/><path d="m48.5 352c-8.800781 0-16 7.199219-16 16v8h32v-8c0-8.800781-7.199219-16-16-16zm0 0" fill="#999"/><path d="m416.5 352c-8.800781 0-16 7.199219-16 16v8h32v-8c0-8.800781-7.199219-16-16-16zm0 0" fill="#999"/><path d="m352.5 352c-8.800781 0-16 7.199219-16 16v8h32v-8c0-8.800781-7.199219-16-16-16zm0 0" fill="#999"/><path d="m163.699219 472 32-32h73.601562l32 32h22.398438l-48-48h-86.398438l-48 48zm0 0" fill="#d6d7d8"/><path d="m88.5 216h16v24h-16zm0 0" fill="#d88445"/><path d="m424.5 264h16v24h-16zm0 0" fill="#c6643e"/><path d="m24.5 264h16v24h-16zm0 0" fill="#c6643e"/><path d="m232.5 256-32 32v80h64v-80zm0 0" fill="#999"/><path d="m144.5 264h32v16h-32zm0 0" fill="#d6d7d8"/><path d="m280.5 264h32v16h-32zm0 0" fill="#d6d7d8"/></svg>