<svg id="Layer_1" enable-background="new 0 0 511.667 511.667" height="512" viewBox="0 0 511.667 511.667" width="512" xmlns="http://www.w3.org/2000/svg"><g fill="#ff5872"><path d="m86.5 138.313h54.333v31.69h-54.333z"/><path d="m86.5 235.98h54.333v31.69h-54.333z"/><path d="m369.833 138.313h54.333v31.69h-54.333z"/><path d="m369.833 235.98h54.333v31.69h-54.333z"/></g><path d="m140.833 170.003h-54.333c25.93-6.753 44.935-16.881 54.333-31.69z" fill="#db4968"/><path d="m86.5 156.006v-17.693h30.335c-6.959 8.546-15.565 15.709-30.335 17.693z" fill="#ff7f90"/><path d="m140.833 267.67h-54.333c25.93-6.753 44.935-16.881 54.333-31.69z" fill="#db4968"/><path d="m86.5 253.673v-17.693h30.335c-6.959 8.546-15.565 15.709-30.335 17.693z" fill="#ff7f90"/><path d="m424.167 170.003h-54.333c25.93-6.753 44.935-16.881 54.333-31.69z" fill="#db4968"/><path d="m369.834 156.006v-17.693h30.335c-6.96 8.546-15.566 15.709-30.335 17.693z" fill="#ff7f90"/><path d="m424.167 267.67h-54.333c25.93-6.753 44.935-16.881 54.333-31.69z" fill="#db4968"/><path d="m369.834 253.673v-17.693h30.335c-6.96 8.546-15.566 15.709-30.335 17.693z" fill="#ff7f90"/><path d="m176.174 433.284c-20.908 7.378-45.771 2.879-62.937-15.001-3.239-3.373-9.593-3.387-12.844 0-23.513 24.489-62.568 24.582-86.169 0-3.061-3.187-8.124-3.29-11.312-.23-3.187 3.06-3.29 8.125-.23 11.312 28.287 29.462 74.093 30.938 104.132 4.852 21.378 18.564 50.14 22.815 74.683 14.157 4.167-1.47 6.353-6.04 4.883-10.206s-6.04-6.353-10.206-4.884z"/><path d="m496.443 418.282c-23.513 24.49-62.567 24.581-86.169 0-3.245-3.381-9.599-3.381-12.844 0-23.513 24.49-62.567 24.581-86.169 0-3.239-3.374-9.593-3.387-12.843 0-23.514 24.49-62.568 24.581-86.17 0-3.06-3.187-8.124-3.29-11.311-.23s-3.29 8.124-.23 11.311c28.287 29.462 74.093 30.938 104.132 4.852 27.975 24.293 70.291 24.941 99.013 0 29.988 26.042 75.799 24.658 104.132-4.852 3.06-3.187 2.957-8.251-.23-11.312-3.187-3.059-8.251-2.957-11.311.231z"/><path d="m361.833 352.822v45.157c0 4.418 3.582 8 8 8s8-3.582 8-8v-45.157c0-4.418-3.582-8-8-8s-8 3.582-8 8z"/><path d="m39.25 314.313h-31.25c-4.418 0-8 3.582-8 8s3.582 8 8 8h70.5v67.667c0 4.418 3.582 8 8 8s8-3.582 8-8v-67.667h38.333v67.667c0 4.418 3.582 8 8 8s8-3.582 8-8v-67.667h267.333v67.667c0 4.418 3.582 8 8 8s8-3.582 8-8v-67.667h71.5c4.418 0 8-3.582 8-8s-3.582-8-8-8h-32.25v-128.067c8.474 8.367 17.704 15 27.727 19.916 3.967 1.946 8.76.307 10.706-3.66s.307-8.76-3.66-10.706c-34.399-16.871-58.677-58.279-74.222-126.592-.806-3.54-3.978-6.225-7.801-6.225h-54.333c-3.901 0-7.145 2.793-7.853 6.488-4.587 23.768-13.192 46.085-28.946 65.087-4.345 5.242-.54 13.106 6.154 13.106 2.299 0 4.581-.986 6.163-2.894 6.304-7.604 11.796-15.969 16.481-25.034v198.581h-35.5c0-172.459.758-159.981-1.765-163.119-2.58-3.825-7.716-4.629-11.324-2.013-58.992 42.777-147.459 13.269-164.533-83.59-.656-3.723-3.906-6.611-7.878-6.611h-54.332c-3.671 0-6.757 2.475-7.698 5.846-5.639 17.686-19.608 100.136-74.325 126.971-7.584 3.719-4.92 15.185 3.529 15.185 1.183 0 2.383-.264 3.517-.819 10.023-4.916 19.253-11.549 27.727-19.916v1.909c0 4.418 3.582 8 8 8s8-3.582 8-8v-21.076c8.761-12.586 16.496-27.622 23.25-45.172v192.406h-23.25v-62.488c0-4.418-3.582-8-8-8s-8 3.582-8 8zm416.167 0h-23.25v-192.405c6.754 17.549 14.489 32.585 23.25 45.172zm-39.25-152.31h-38.333v-15.69h38.333zm0-31.69h-38.333v-55.333h38.333zm-38.334 47.69h38.333v49.977h-38.333zm0 65.977h38.333v15.69h-38.333zm0 31.69h38.333v38.643h-38.333zm-130.5-91.691v105.51c0 4.418 3.582 8 8 8s8-3.582 8-8v-105.55c16.292-1.188 32.307-5.899 47-14.002v144.376h-110v-144.103c15.114 8.223 31.118 12.676 47 13.769zm-63-24.255v154.589h-35.5v-98.824c0-4.418-3.582-8-8-8s-8 3.582-8 8v12.49h-38.333v-49.977h38.333v10.153c0 4.418 3.582 8 8 8s8-3.582 8-8v-71.84c9.025 17.442 21.036 32.149 35.5 43.409zm-51.5 2.279h-38.333v-15.69h38.333zm-38.333 81.977h38.333v15.69h-38.333zm38.333-169v55.333h-38.333v-55.333zm-38.333 200.69h38.333v38.643h-38.333z"/><path d="m47.25 232.822c4.418 0 8-3.582 8-8v-9.332c0-4.418-3.582-8-8-8s-8 3.582-8 8v9.332c0 4.419 3.582 8 8 8z"/></svg>