<svg xmlns="http://www.w3.org/2000/svg" height="596.717pt" version="1.1" viewBox="1 1 596.717 596.717" width="596.717pt">
<g id="surface1">
<path d="M 587.050781 417.898438 L 587.050781 557.199219 C 587.050781 573.6875 573.6875 587.050781 557.199219 587.050781 L 109.449219 587.050781 C 54.496094 587.050781 9.949219 542.503906 9.949219 487.550781 C 9.949219 432.59375 54.496094 388.050781 109.449219 388.050781 L 557.199219 388.050781 C 573.6875 388.050781 587.050781 401.414062 587.050781 417.898438 Z M 587.050781 417.898438 " style=" stroke:none;fill-rule:nonzero;fill:rgb(85.490196%,86.666667%,87.45098%);fill-opacity:1;" />
<path d="M 109.449219 388.050781 C 54.496094 388.050781 9.949219 432.59375 9.949219 487.550781 C 9.949219 542.503906 54.496094 587.050781 109.449219 587.050781 L 199 587.050781 L 398 388.050781 Z M 109.449219 388.050781 " style=" stroke:none;fill-rule:nonzero;fill:rgb(75.686275%,78.039216%,78.823529%);fill-opacity:1;" />
<path d="M 447.75 427.851562 L 547.25 427.851562 L 547.25 547.25 L 447.75 547.25 Z M 447.75 427.851562 " style=" stroke:none;fill-rule:nonzero;fill:rgb(99.215686%,65.490196%,18.431373%);fill-opacity:1;" />
<path d="M 308.449219 427.851562 L 407.949219 427.851562 L 407.949219 547.25 L 308.449219 547.25 Z M 308.449219 427.851562 " style=" stroke:none;fill-rule:nonzero;fill:rgb(100%,54.117647%,23.921569%);fill-opacity:1;" />
<path d="M 169.148438 427.851562 L 268.648438 427.851562 L 268.648438 547.25 L 169.148438 547.25 Z M 169.148438 427.851562 " style=" stroke:none;fill-rule:nonzero;fill:rgb(89.019608%,29.411765%,52.941176%);fill-opacity:1;" />
<path d="M 39.09375 557.90625 C 0.238281 519.050781 0.238281 456.046875 39.09375 417.191406 L 385.433594 70.746094 C 397.085938 59.082031 415.988281 59.082031 427.652344 70.746094 L 526.15625 169.25 C 537.808594 180.902344 537.808594 199.804688 526.15625 211.457031 L 179.804688 557.90625 C 140.953125 596.761719 77.949219 596.761719 39.09375 557.90625 Z M 39.09375 557.90625 " style=" stroke:none;fill-rule:nonzero;fill:rgb(85.490196%,86.666667%,87.45098%);fill-opacity:1;" />
<path d="M 238.800781 217.417969 L 39.09375 417.191406 C 0.40625 456.21875 0.6875 519.21875 39.710938 557.90625 C 78.496094 596.351562 141.023438 596.351562 179.808594 557.90625 L 238.800781 498.890625 Z M 238.800781 217.417969 " style=" stroke:none;fill-rule:nonzero;fill:rgb(75.686275%,78.039216%,78.823529%);fill-opacity:1;" />
<path d="M 336.167969 176.277344 L 406.523438 105.921875 L 490.953125 190.347656 L 420.597656 260.703125 Z M 336.167969 176.277344 " style=" stroke:none;fill-rule:nonzero;fill:rgb(52.941176%,80.784314%,85.098039%);fill-opacity:1;" />
<path d="M 237.679688 274.765625 L 308.035156 204.410156 L 392.460938 288.835938 L 322.105469 359.195312 Z M 237.679688 274.765625 " style=" stroke:none;fill-rule:nonzero;fill:rgb(44.313725%,76.862745%,81.960784%);fill-opacity:1;" />
<path d="M 139.167969 373.269531 L 209.523438 302.914062 L 293.953125 387.339844 L 223.59375 457.695312 Z M 139.167969 373.269531 " style=" stroke:none;fill-rule:nonzero;fill:rgb(36.862745%,70.196078%,81.960784%);fill-opacity:1;" />
<path d="M 39.800781 9.949219 L 179.097656 9.949219 C 195.585938 9.949219 208.949219 23.3125 208.949219 39.800781 L 208.949219 487.550781 C 208.949219 542.503906 164.402344 587.050781 109.449219 587.050781 C 54.496094 587.050781 9.949219 542.503906 9.949219 487.550781 L 9.949219 39.800781 C 9.949219 23.3125 23.3125 9.949219 39.800781 9.949219 Z M 39.800781 9.949219 " style=" stroke:none;fill-rule:nonzero;fill:rgb(85.490196%,86.666667%,87.45098%);fill-opacity:1;" />
<path d="M 49.75 49.75 L 169.148438 49.75 L 169.148438 149.25 L 49.75 149.25 Z M 49.75 49.75 " style=" stroke:none;fill-rule:nonzero;fill:rgb(89.019608%,29.411765%,52.941176%);fill-opacity:1;" />
<path d="M 49.75 189.050781 L 169.148438 189.050781 L 169.148438 288.550781 L 49.75 288.550781 Z M 49.75 189.050781 " style=" stroke:none;fill-rule:nonzero;fill:rgb(85.098039%,28.235294%,50.588235%);fill-opacity:1;" />
<path d="M 49.75 328.351562 L 169.148438 328.351562 L 169.148438 427.851562 L 49.75 427.851562 Z M 49.75 328.351562 " style=" stroke:none;fill-rule:nonzero;fill:rgb(74.901961%,23.921569%,45.882353%);fill-opacity:1;" />
<path d="M 139.300781 507.449219 C 139.300781 523.933594 125.933594 537.300781 109.449219 537.300781 C 92.964844 537.300781 79.597656 523.933594 79.597656 507.449219 C 79.597656 490.964844 92.964844 477.597656 109.449219 477.597656 C 125.933594 477.597656 139.300781 490.964844 139.300781 507.449219 Z M 139.300781 507.449219 " style=" stroke:none;fill-rule:nonzero;fill:rgb(75.686275%,78.039216%,78.823529%);fill-opacity:1;" />
<path d="M 547.25 417.898438 L 447.75 417.898438 C 442.257812 417.898438 437.800781 422.359375 437.800781 427.847656 L 437.800781 547.25 C 437.800781 552.742188 442.257812 557.199219 447.75 557.199219 L 547.25 557.199219 C 552.742188 557.199219 557.199219 552.742188 557.199219 547.25 L 557.199219 427.851562 C 557.199219 422.359375 552.742188 417.898438 547.25 417.898438 Z M 537.300781 537.300781 L 457.699219 537.300781 L 457.699219 437.800781 L 537.300781 437.800781 Z M 537.300781 537.300781 " style=" stroke:none;fill-rule:nonzero;fill:rgb(0%,0%,0%);fill-opacity:1;" />
<path d="M 413.570312 267.734375 C 417.453125 271.617188 423.761719 271.617188 427.640625 267.734375 L 497.996094 197.378906 C 501.878906 193.496094 501.878906 187.1875 497.996094 183.308594 L 413.5625 98.882812 C 409.621094 95.140625 403.433594 95.140625 399.492188 98.882812 L 329.144531 169.238281 C 325.265625 173.121094 325.265625 179.429688 329.144531 183.308594 Z M 406.527344 119.988281 L 476.894531 190.34375 L 420.605469 246.628906 L 350.238281 176.273438 Z M 406.527344 119.988281 " style=" stroke:none;fill-rule:nonzero;fill:rgb(0%,0%,0%);fill-opacity:1;" />
<path d="M 322.109375 369.144531 C 324.746094 369.144531 327.285156 368.101562 329.144531 366.230469 L 399.492188 295.863281 C 403.371094 291.980469 403.371094 285.675781 399.492188 281.792969 L 315.066406 197.367188 C 311.117188 193.636719 304.945312 193.636719 300.996094 197.367188 L 230.648438 267.722656 C 226.769531 271.605469 226.769531 277.914062 230.648438 281.792969 L 315.074219 366.230469 C 316.9375 368.101562 319.472656 369.144531 322.109375 369.144531 Z M 308.03125 218.480469 L 378.386719 288.839844 L 322.109375 345.136719 L 251.734375 274.769531 Z M 308.03125 218.480469 " style=" stroke:none;fill-rule:nonzero;fill:rgb(0%,0%,0%);fill-opacity:1;" />
<path d="M 49.75 159.199219 L 169.148438 159.199219 C 174.640625 159.199219 179.097656 154.742188 179.097656 149.25 L 179.097656 49.75 C 179.097656 44.257812 174.640625 39.800781 169.148438 39.800781 L 49.75 39.800781 C 44.257812 39.800781 39.800781 44.257812 39.800781 49.75 L 39.800781 149.25 C 39.800781 154.742188 44.257812 159.199219 49.75 159.199219 Z M 59.699219 59.699219 L 159.199219 59.699219 L 159.199219 139.300781 L 59.699219 139.300781 Z M 59.699219 59.699219 " style=" stroke:none;fill-rule:nonzero;fill:rgb(0%,0%,0%);fill-opacity:1;" />
<path d="M 49.75 298.5 L 169.148438 298.5 C 174.640625 298.5 179.097656 294.042969 179.097656 288.550781 L 179.097656 189.050781 C 179.097656 183.558594 174.640625 179.101562 169.148438 179.101562 L 49.75 179.101562 C 44.257812 179.101562 39.800781 183.558594 39.800781 189.050781 L 39.800781 288.550781 C 39.800781 294.042969 44.257812 298.5 49.75 298.5 Z M 59.699219 199 L 159.199219 199 L 159.199219 278.597656 L 59.699219 278.597656 Z M 59.699219 199 " style=" stroke:none;fill-rule:nonzero;fill:rgb(0%,0%,0%);fill-opacity:1;" />
<path d="M 179.097656 427.851562 L 179.097656 328.351562 C 179.097656 322.859375 174.640625 318.402344 169.148438 318.402344 L 49.75 318.402344 C 44.257812 318.402344 39.800781 322.859375 39.800781 328.351562 L 39.800781 427.851562 C 39.800781 433.34375 44.257812 437.800781 49.75 437.800781 L 169.148438 437.800781 C 174.640625 437.800781 179.097656 433.339844 179.097656 427.851562 Z M 159.199219 417.898438 L 59.699219 417.898438 L 59.699219 338.300781 L 159.199219 338.300781 Z M 159.199219 417.898438 " style=" stroke:none;fill-rule:nonzero;fill:rgb(0%,0%,0%);fill-opacity:1;" />
<path d="M 109.449219 457.699219 C 87.46875 457.699219 69.648438 475.519531 69.648438 497.5 C 69.648438 519.476562 87.46875 537.296875 109.449219 537.296875 C 131.429688 537.296875 149.25 519.476562 149.25 497.5 C 149.25 475.519531 131.429688 457.699219 109.449219 457.699219 Z M 109.449219 517.398438 C 98.453125 517.398438 89.550781 508.496094 89.550781 497.5 C 89.550781 486.503906 98.453125 477.597656 109.449219 477.597656 C 120.445312 477.597656 129.351562 486.503906 129.351562 497.5 C 129.351562 508.496094 120.445312 517.398438 109.449219 517.398438 Z M 109.449219 517.398438 " style=" stroke:none;fill-rule:nonzero;fill:rgb(0%,0%,0%);fill-opacity:1;" />
<path d="M 557.199219 378.097656 L 373.621094 378.097656 L 533.179688 218.480469 C 548.722656 202.941406 548.722656 177.746094 533.179688 162.203125 L 434.675781 63.699219 C 427.222656 56.21875 417.085938 52.019531 406.527344 52.046875 C 395.96875 52.007812 385.839844 56.199219 378.390625 63.679688 L 218.898438 223.25 L 218.898438 39.800781 C 218.898438 17.820312 201.078125 0 179.097656 0 L 39.800781 0 C 17.820312 0 0 17.820312 0 39.800781 L 0 487.550781 C 0.0703125 547.964844 49.03125 596.929688 109.449219 597 L 557.199219 597 C 579.179688 597 597 579.179688 597 557.199219 L 597 417.898438 C 597 395.921875 579.179688 378.097656 557.199219 378.097656 Z M 218.898438 326.359375 L 279.894531 387.355469 L 223.605469 443.632812 L 218.898438 438.925781 Z M 218.003906 500.863281 C 218.121094 499.925781 218.273438 499 218.371094 498.054688 C 218.691406 494.582031 218.898438 491.089844 218.898438 487.558594 L 218.898438 466.296875 C 220.332031 467.140625 221.945312 467.609375 223.605469 467.648438 C 226.242188 467.648438 228.78125 466.605469 230.640625 464.734375 L 300.996094 394.378906 C 304.878906 390.496094 304.878906 384.191406 300.996094 380.308594 L 218.898438 298.210938 L 218.898438 251.394531 L 392.457031 77.777344 C 400.226562 70.007812 412.824219 70.007812 420.59375 77.769531 C 420.59375 77.769531 420.59375 77.769531 420.605469 77.777344 L 519.109375 176.285156 C 526.882812 184.054688 526.882812 196.652344 519.109375 204.421875 L 235.925781 487.699219 L 217.308594 506.324219 C 217.617188 504.515625 217.785156 502.671875 218.003906 500.863281 Z M 318.398438 437.800781 L 398 437.800781 L 398 537.300781 L 318.398438 537.300781 Z M 258.699219 493.0625 L 258.699219 537.300781 L 214.480469 537.300781 Z M 127.449219 575.277344 C 124.960938 575.796875 122.414062 576.144531 119.859375 576.441406 C 119.410156 576.492188 118.972656 576.59375 118.523438 576.640625 C 115.539062 576.941406 112.554688 577.097656 109.449219 577.097656 C 60.019531 577.039062 19.960938 536.980469 19.898438 487.550781 L 19.898438 39.800781 C 19.898438 28.804688 28.804688 19.898438 39.800781 19.898438 L 179.097656 19.898438 C 190.09375 19.898438 199 28.804688 199 39.800781 L 199 487.550781 C 199 490.613281 198.839844 493.640625 198.542969 496.625 C 198.542969 497.082031 198.394531 497.519531 198.34375 497.976562 C 198.046875 500.535156 197.6875 503.070312 197.179688 505.546875 L 197.109375 505.828125 C 189.785156 540.632812 162.613281 567.824219 127.816406 575.1875 Z M 577.097656 557.199219 C 577.097656 568.195312 568.195312 577.097656 557.199219 577.097656 L 172.421875 577.097656 C 177.566406 573.46875 182.394531 569.398438 186.839844 564.941406 L 194.582031 557.199219 L 268.648438 557.199219 C 274.140625 557.199219 278.597656 552.742188 278.597656 547.25 L 278.597656 473.152344 L 298.5 453.253906 L 298.5 547.25 C 298.5 552.742188 302.957031 557.199219 308.449219 557.199219 L 407.949219 557.199219 C 413.441406 557.199219 417.898438 552.742188 417.898438 547.25 L 417.898438 427.851562 C 417.898438 422.359375 413.441406 417.902344 407.949219 417.902344 L 333.832031 417.902344 L 353.734375 398 L 557.199219 398 C 568.195312 398 577.101562 406.90625 577.101562 417.902344 L 577.101562 557.199219 Z M 577.097656 557.199219 " style=" stroke:none;fill-rule:nonzero;fill:rgb(0%,0%,0%);fill-opacity:1;" />
</g>
</svg>