<svg height="512pt" viewBox="0 0 512.00023 512" width="512pt" xmlns="http://www.w3.org/2000/svg"><path d="m375.433594 240.464844-128.535156.003906c-8.28125 0-15 6.714844-15 15v241.53125c0 8.285156 6.71875 15 15 15h128.535156c8.28125 0 15-6.71875 15-15v-241.535156c0-8.28125-6.71875-15-15-15zm0 0" fill="#edf6ff"/><path d="m434.867188 128.535156h-1.066407v-33.199218c0-8.285157-6.714843-15-15-15h-66.402343c-8.28125 0-15 6.714843-15 15v33.199218h-1.0625c-8.285157 0-15 6.714844-15 15v368.464844h128.53125v-368.464844c0-8.285156-6.71875-15-15-15zm0 0" fill="#c3deff"/><path d="m272.066406 192.800781h-98.527344c-8.285156 0-15 6.714844-15 15v304.199219h128.527344v-304.199219c0-8.285156-6.714844-15-15-15zm0 0" fill="#d5e9ff"/><path d="m207.800781 289.199219h-128.53125c-8.285156 0-15 6.71875-15 15v192.800781c0 8.285156 6.714844 15 15 15h128.53125c8.285157 0 15-6.71875 15-15v-192.800781c0-8.285157-6.714843-15-15-15zm0 0" fill="#00347b"/><path d="m103.371094 202.40625h-48.199219c-8.285156 0-15 6.71875-15 15v141.453125c0 8.28125 6.714844 15 15 15h48.199219c8.28125 0 15-6.71875 15-15v-141.453125c0-8.28125-6.71875-15-15-15zm0 0" fill="#ff8d9d"/><path d="m118.371094 217.410156v141.449219c0 8.28125-6.71875 15-15 15h-24.097656v-171.449219h24.097656c8.28125 0 15 6.710938 15 15zm0 0" fill="#ff415b"/><path d="m79.269531 139.398438c-8.285156 0-15-6.714844-15-15v-109.398438c0-8.28125 6.714844-15 15-15 8.285157 0 15 6.71875 15 15v109.398438c0 8.285156-6.714843 15-15 15zm0 0" fill="#c7001c"/><path d="m94.273438 15v109.398438c0 8.28125-6.722657 15-15 15v-139.398438c8.277343 0 15 6.71875 15 15zm0 0" fill="#a50017"/><path d="m103.371094 303.132812h-48.199219c-8.285156 0-15-6.714843-15-15 0-8.285156 6.714844-15 15-15h48.199219c8.28125 0 15 6.714844 15 15 0 8.285157-6.71875 15-15 15zm0 0" fill="#ff415b"/><path d="m118.371094 288.128906c0 8.292969-6.71875 15-15 15h-24.097656v-30h24.097656c8.28125 0 15 6.722656 15 15zm0 0" fill="#c7001c"/><path d="m79.269531 238.867188c-34.847656 0-63.199219-28.351563-63.199219-63.199219 0-34.847657 28.351563-63.199219 63.199219-63.199219 34.847657 0 63.199219 28.351562 63.199219 63.199219 0 34.847656-28.351562 63.199219-63.199219 63.199219zm0 0" fill="#ff415b"/><path d="m79.273438 112.46875v126.402344c34.847656 0 63.199218-28.351563 63.199218-63.199219 0-34.851563-28.351562-63.203125-63.199218-63.203125zm0 0" fill="#c7001c"/><path d="m95.335938 94.269531h-32.132813c-8.285156 0-15-6.71875-15-15 0-8.285156 6.714844-15 15-15h32.132813c8.285156 0 15 6.714844 15 15 0 8.28125-6.714844 15-15 15zm0 0" fill="#ff415b"/><path d="m110.332031 79.269531c0 8.28125-6.710937 15-15 15h-16.058593v-30h16.058593c8.289063 0 15 6.710938 15 15zm0 0" fill="#c7001c"/><path d="m151.851562 509.480469c-2.550781 1.710937-5.4375 2.519531-8.300781 2.519531-4.847656 0-9.609375-2.351562-12.5-6.679688l-36.777343-55.199218v46.878906c0 8.28125-6.722657 15-15 15-8.292969 0-15-6.71875-15-15v-46.878906l-36.792969 55.199218c-2.886719 4.328126-7.648438 6.679688-12.488281 6.679688-2.859376 0-5.75-.808594-8.308594-2.519531-6.890625-4.589844-8.761719-13.898438-4.160156-20.800781l37.507812-56.300782c2.890625-4.328125 7.652344-6.679687 12.5-6.679687h53.472656c4.847656 0 9.609375 2.351562 12.5 6.679687l37.519532 56.300782c4.589843 6.902343 2.730468 16.210937-4.171876 20.800781zm0 0" fill="#c7001c"/><path d="m151.851562 509.480469c-2.550781 1.710937-5.4375 2.519531-8.300781 2.519531-4.847656 0-9.609375-2.351562-12.5-6.679688l-36.777343-55.199218v46.878906c0 8.28125-6.722657 15-15 15v-86.300781h26.730468c4.847656 0 9.609375 2.351562 12.5 6.679687l37.519532 56.300782c4.589843 6.902343 2.730468 16.210937-4.171876 20.800781zm0 0" fill="#a50017"/><path d="m79.269531 463.800781c-34.847656 0-63.199219-28.351562-63.199219-63.199219 0-34.847656 28.351563-63.203124 63.199219-63.203124 34.847657 0 63.199219 28.355468 63.199219 63.203124 0 34.847657-28.351562 63.199219-63.199219 63.199219zm0 0" fill="#ff415b"/><path d="m79.273438 337.398438v126.402343c34.847656 0 63.199218-28.351562 63.199218-63.199219 0-34.851562-28.351562-63.203124-63.199218-63.203124zm0 0" fill="#c7001c"/><path d="m272.066406 192.800781h-49.265625v319.199219h64.265625v-304.199219c0-8.285156-6.714844-15-15-15zm0 0" fill="#c3deff"/><path d="m385.601562 512h64.265626v-368.464844c0-8.285156-6.714844-15-15-15h-1.066407v-33.199218c0-8.285157-6.714843-15-15-15h-33.199219zm0 0" fill="#aed3ff"/><path d="m497 512h-96.398438c-8.285156 0-15-6.714844-15-15v-192.800781c0-5.679688 3.207032-10.875 8.289063-13.414063l96.402344-48.199218c4.648437-2.324219 10.171875-2.078126 14.59375.65625 4.421875 2.730468 7.113281 7.5625 7.113281 12.757812v241c0 8.285156-6.714844 15-15 15zm0 0" fill="#001737"/></svg>