<svg height="480pt" viewBox="-72 0 480 480" width="480pt" xmlns="http://www.w3.org/2000/svg"><path d="m160 0h16v64h-16zm0 0" fill="#e94f4f"/><path d="m136 200h64c2.242188.007812 4.382812-.925781 5.90625-2.574219 1.519531-1.644531 2.28125-3.855469 2.09375-6.089843l-8-96c-.347656-4.15625-3.828125-7.351563-8-7.335938h-48c-4.171875-.015625-7.652344 3.179688-8 7.335938l-8 96c-.1875 2.234374.574219 4.445312 2.09375 6.089843 1.523438 1.648438 3.664062 2.582031 5.90625 2.574219zm36.6875-64h-24l1.839844-22.152344zm-2.289062 16-24.796876 21.246094 1.757813-21.246094zm-12.796876 32 31.4375-26.945312 2.265626 26.945312zm28.949219-56.734375-23.238281-23.265625h21.328125zm0 0" fill="#e94f4f"/><path d="m319.199219 468.535156-95.199219-198.351562v-38.183594c0-4.417969-3.582031-8-8-8h-96c-4.417969 0-8 3.582031-8 8v38.183594l-95.199219 198.351562c-1.191406 2.476563-1.027343 5.390625.4375 7.71875 1.460938 2.328125 4.011719 3.742188 6.761719 3.746094h56c3.03125 0 5.804688-1.710938 7.160156-4.425781l18.527344-37.070313c11.804688-23.597656 35.925781-38.503906 62.3125-38.503906s50.507812 14.90625 62.3125 38.503906l18.527344 37.070313c1.355468 2.714843 4.128906 4.425781 7.160156 4.425781h56c2.75-.003906 5.300781-1.417969 6.761719-3.746094 1.464843-2.328125 1.628906-5.242187.4375-7.71875zm-58.3125-84.535156h-20.886719v-24h9.367188zm-148.886719-64h28.113281l-28.113281 17.601562zm64-40h17.902344l-17.902344 14.921875zm-16 14.921875-17.902344-14.921875h17.902344zm53.230469-10.203125 9.257812 19.28125h-32.390625zm-5.230469-20.71875h-17.902344l17.902344-14.921875zm-40-2.398438-25.902344-21.601562h51.804688zm-22.097656 2.398438h-17.902344v-14.921875zm-23.132813 20.71875 23.132813 19.28125h-32.390625zm53.230469 41.679688 28.113281 17.601562h-28.113281zm19.886719-6.398438h28.113281v17.601562zm-109.253907 40h9.367188v24h-20.886719zm-21.929687 45.6875 14.648437 18.3125h-23.441406zm-16.472656 34.3125h16.898437l-23.03125 12.800781zm26.824219 24h-20.183594l27.945312-15.527344zm22.402343-42.976562-16.808593-21.023438h37.703124c-8.136718 5.730469-15.207031 12.847656-20.878906 21.023438zm14.542969-37.023438v-17.601562l28.113281 17.601562zm48-6.398438-28.113281-17.601562h28.113281zm0-33.601562h-28.113281l28.113281-17.601562zm16 16h28.113281l-28.113281 17.601562zm48 6.398438v17.601562h-28.113281zm11.496094 50.753906c-5.078125-6.558594-11.09375-12.339844-17.847656-17.152344h35.039062zm35.257812-12.625 9.335938 19.472656h-28.800782zm-9.808594 59.472656-7.761718-15.527344 27.945312 15.527344zm9.925782-24h16.898437l6.132813 12.800781zm0 0" fill="#e94f4f"/><path d="m150.535156 113.847656 6.152344 6.152344h22.625l-16-16h21.328125l1.335937 16h16.046876l-2.023438-24.664062c-.347656-4.15625-3.828125-7.351563-8-7.335938h-48c-4.171875-.015625-7.652344 3.179688-8 7.335938l-2.023438 24.664062h16.046876zm0 0" fill="#cf3a3a"/><path d="m128 249.078125 8.304688 6.921875h24.992187l-19.199219-16h51.804688l-19.199219 16h24.992187l8.304688-6.921875v6.921875h16v-24c0-4.417969-3.582031-8-8-8h-96c-4.417969 0-8 3.582031-8 8v24h16zm0 0" fill="#cf3a3a"/><g fill="#d6d6d4"><path d="m0 464h112v16h-112zm0 0"/><path d="m224 464h112v16h-112zm0 0"/><path d="m192 104h-48c-4.417969 0-8-3.582031-8-8v-32c0-4.417969 3.582031-8 8-8h48c4.417969 0 8 3.582031 8 8v32c0 4.417969-3.582031 8-8 8zm-40-16h32v-16h-32zm0 0"/><path d="m232 184h-128c-4.417969 0-8 3.582031-8 8v24c0 2.121094.84375 4.15625 2.34375 5.65625l16 16c1.5 1.5 3.535156 2.34375 5.65625 2.34375h96c2.121094 0 4.15625-.84375 5.65625-2.34375l16-16c1.5-1.5 2.34375-3.535156 2.34375-5.65625v-24c0-4.417969-3.582031-8-8-8zm-40 16v24h-16v-24zm-68.6875 24-11.3125-11.3125v-12.6875h16v24zm20.6875-24h16v24h-16zm80 12.6875-11.3125 11.3125h-4.6875v-24h16zm0 0"/></g></svg>